<svg xmlns="http://www.w3.org/2000/svg" width="648.682" height="64.941" viewBox="0 0 648.682 64.941"><path d="M16.7-22.363V-4.1h7.568a3.239,3.239,0,0,1,2.148.562,1.891,1.891,0,0,1,.635,1.489,1.911,1.911,0,0,1-.635,1.465A3.142,3.142,0,0,1,24.268,0H7.08a3.054,3.054,0,0,1-2.1-.586,1.911,1.911,0,0,1-.635-1.465A1.891,1.891,0,0,1,4.98-3.54,3.148,3.148,0,0,1,7.08-4.1H12.6V-53.027H7.08a3.148,3.148,0,0,1-2.1-.562,1.891,1.891,0,0,1-.635-1.489,1.891,1.891,0,0,1,.635-1.489,3.148,3.148,0,0,1,2.1-.562H24.268a3.239,3.239,0,0,1,2.148.562,1.891,1.891,0,0,1,.635,1.489,1.891,1.891,0,0,1-.635,1.489,3.239,3.239,0,0,1-2.148.562H16.7v25.244L45.02-53.027H40.527a3.239,3.239,0,0,1-2.148-.562,1.891,1.891,0,0,1-.635-1.489,1.891,1.891,0,0,1,.635-1.489,3.239,3.239,0,0,1,2.148-.562H52.588a3.148,3.148,0,0,1,2.1.562,1.891,1.891,0,0,1,.635,1.489,1.891,1.891,0,0,1-.635,1.489,3.148,3.148,0,0,1-2.1.562h-1.66L28.369-32.861a27.311,27.311,0,0,1,8.35,5.127,33.94,33.94,0,0,1,6.4,8.74Q44.873-15.82,49.561-4.1h5.127a3.239,3.239,0,0,1,2.148.562,1.891,1.891,0,0,1,.635,1.489,1.911,1.911,0,0,1-.635,1.465A3.142,3.142,0,0,1,54.688,0h-7.91q-6.445-17.627-10.84-22.681a23.5,23.5,0,0,0-10.986-7.1Zm86.816,3.271H76.563L71.045-4.1h7.861a3.148,3.148,0,0,1,2.1.562,1.891,1.891,0,0,1,.635,1.489,1.911,1.911,0,0,1-.635,1.465,3.054,3.054,0,0,1-2.1.586H63.574a3.054,3.054,0,0,1-2.1-.586,1.911,1.911,0,0,1-.635-1.465,1.891,1.891,0,0,1,.635-1.489,3.148,3.148,0,0,1,2.1-.562h3.174L84.863-53.027H72.754a3.148,3.148,0,0,1-2.1-.562,1.891,1.891,0,0,1-.635-1.489,1.891,1.891,0,0,1,.635-1.489,3.148,3.148,0,0,1,2.1-.562H93.408L113.428-4.1H116.6a3.148,3.148,0,0,1,2.1.562,1.891,1.891,0,0,1,.635,1.489A1.911,1.911,0,0,1,118.7-.586,3.054,3.054,0,0,1,116.6,0H101.318A3.142,3.142,0,0,1,99.17-.586a1.911,1.911,0,0,1-.635-1.465A1.891,1.891,0,0,1,99.17-3.54a3.239,3.239,0,0,1,2.148-.562h7.813Zm-1.562-4.1L90.625-53.027H89.111L78.125-23.193ZM170.117,0h-5.273L134.619-51.123V-4.1h7.568a3.239,3.239,0,0,1,2.148.562,1.891,1.891,0,0,1,.635,1.489,1.911,1.911,0,0,1-.635,1.465A3.142,3.142,0,0,1,142.188,0H127.1a3.142,3.142,0,0,1-2.148-.586,1.911,1.911,0,0,1-.635-1.465,1.891,1.891,0,0,1,.635-1.489A3.239,3.239,0,0,1,127.1-4.1h3.418V-53.027H125a3.148,3.148,0,0,1-2.1-.562,1.891,1.891,0,0,1-.635-1.489,1.891,1.891,0,0,1,.635-1.489,3.148,3.148,0,0,1,2.1-.562h10.742L166.016-5.908V-53.027h-7.568a3.148,3.148,0,0,1-2.1-.562,1.891,1.891,0,0,1-.635-1.489,1.927,1.927,0,0,1,.61-1.489,3.135,3.135,0,0,1,2.124-.562h15.137a3.148,3.148,0,0,1,2.1.562,1.891,1.891,0,0,1,.635,1.489,1.891,1.891,0,0,1-.635,1.489,3.148,3.148,0,0,1-2.1.562h-3.467Zm55.957-53.027V-16.8a17.538,17.538,0,0,1-5.566,12.939,18.292,18.292,0,0,1-13.281,5.469A21,21,0,0,1,198.12-.513a41.116,41.116,0,0,1-9.741-6.958V-22.607a3.054,3.054,0,0,1,.586-2.1,1.911,1.911,0,0,1,1.465-.635,1.966,1.966,0,0,1,1.514.635,3.054,3.054,0,0,1,.586,2.1L192.48-9.424a29.978,29.978,0,0,0,7.446,5.2,17.051,17.051,0,0,0,7.3,1.733,15.516,15.516,0,0,0,7.568-1.953A14.036,14.036,0,0,0,219.7-9.375a13.512,13.512,0,0,0,2.222-7.422v-36.23H205.859a3.239,3.239,0,0,1-2.148-.562,1.891,1.891,0,0,1-.635-1.489,1.891,1.891,0,0,1,.635-1.489,3.239,3.239,0,0,1,2.148-.562h29.98a3.148,3.148,0,0,1,2.1.562,1.891,1.891,0,0,1,.635,1.489,1.891,1.891,0,0,1-.635,1.489,3.148,3.148,0,0,1-2.1.562Zm46.045,0V-4.1h14.063a3.148,3.148,0,0,1,2.1.562,1.891,1.891,0,0,1,.635,1.489,1.911,1.911,0,0,1-.635,1.465,3.054,3.054,0,0,1-2.1.586H253.955a3.054,3.054,0,0,1-2.1-.586,1.911,1.911,0,0,1-.635-1.465,1.891,1.891,0,0,1,.635-1.489,3.148,3.148,0,0,1,2.1-.562h14.063V-53.027H253.955a3.148,3.148,0,0,1-2.1-.562,1.891,1.891,0,0,1-.635-1.489,1.891,1.891,0,0,1,.635-1.489,3.148,3.148,0,0,1,2.1-.562h32.227a3.148,3.148,0,0,1,2.1.562,1.891,1.891,0,0,1,.635,1.489,1.891,1.891,0,0,1-.635,1.489,3.148,3.148,0,0,1-2.1.562Zm57.08,41.26h1.758a6.434,6.434,0,0,1,4.688,1.929A6.313,6.313,0,0,1,337.6-5.176,6.308,6.308,0,0,1,335.62-.439a6.5,6.5,0,0,1-4.663,1.9H329.2a6.434,6.434,0,0,1-4.687-1.929,6.313,6.313,0,0,1-1.953-4.663,6.308,6.308,0,0,1,1.978-4.736A6.5,6.5,0,0,1,329.2-11.768Zm78.809-30.518v3.662L377.295-4.1h27.734V-9.766a3.148,3.148,0,0,1,.562-2.1,1.891,1.891,0,0,1,1.489-.635,1.966,1.966,0,0,1,1.514.635,3.054,3.054,0,0,1,.586,2.1L409.131,0h-37.5V-3.662L402.2-38.135H376.709v5.566a3.054,3.054,0,0,1-.586,2.1,1.911,1.911,0,0,1-1.465.635,1.966,1.966,0,0,1-1.514-.635,3.054,3.054,0,0,1-.586-2.1v-9.717ZM452.1-63.33v10.6h-6.055v-10.6Zm.146,21.045V-4.1h16.113a3.239,3.239,0,0,1,2.148.562,1.891,1.891,0,0,1,.635,1.489,1.911,1.911,0,0,1-.635,1.465A3.142,3.142,0,0,1,468.359,0H432.031a3.054,3.054,0,0,1-2.1-.586,1.911,1.911,0,0,1-.635-1.465,1.891,1.891,0,0,1,.635-1.489,3.148,3.148,0,0,1,2.1-.562h16.113V-38.135H436.182a3.155,3.155,0,0,1-2.124-.586,1.879,1.879,0,0,1-.659-1.465,1.966,1.966,0,0,1,.635-1.514,3.142,3.142,0,0,1,2.148-.586ZM523.633-39.6a2.968,2.968,0,0,1,.586-2.051,1.911,1.911,0,0,1,1.465-.635,1.966,1.966,0,0,1,1.514.635,3.142,3.142,0,0,1,.586,2.148v7.031a3.054,3.054,0,0,1-.586,2.1,1.966,1.966,0,0,1-1.514.635,1.935,1.935,0,0,1-1.392-.537,2.658,2.658,0,0,1-.659-1.758,6.543,6.543,0,0,0-3.027-4.834q-4-2.734-10.6-2.734-6.885,0-10.693,2.783-2.881,2.1-2.881,4.688,0,2.93,3.418,4.883,2.344,1.367,8.887,2.1,8.545.928,11.865,2.1a15.014,15.014,0,0,1,7.056,4.736,10.545,10.545,0,0,1,2.319,6.543q0,5.225-5.029,9.3T510.205,1.611q-9.717,0-15.918-4.932a7.234,7.234,0,0,1-.2,2.148,1.807,1.807,0,0,1-.708.83A2.023,2.023,0,0,1,492.236,0a1.911,1.911,0,0,1-1.465-.635,3.054,3.054,0,0,1-.586-2.1v-8.447a3.148,3.148,0,0,1,.562-2.1,1.891,1.891,0,0,1,1.489-.635,2.026,2.026,0,0,1,1.489.61,2.211,2.211,0,0,1,.61,1.636,6.135,6.135,0,0,0,1.123,3.76A12.337,12.337,0,0,0,500.9-4.028a24.084,24.084,0,0,0,9.155,1.538q8.008,0,11.914-2.979t3.906-6.3q0-3.809-3.955-6.1-4-2.295-11.646-3.076A47.263,47.263,0,0,1,499.316-23a11.145,11.145,0,0,1-5.176-3.809,9.09,9.09,0,0,1-1.855-5.469q0-5.273,5.176-8.374a23.6,23.6,0,0,1,12.354-3.1Q518.311-43.75,523.633-39.6Zm32.959-21.68v25.244a26,26,0,0,1,7.5-5.981,18.229,18.229,0,0,1,8.032-1.733,17.921,17.921,0,0,1,8.13,1.685,14.255,14.255,0,0,1,5.591,5.176,13.369,13.369,0,0,1,2.246,7.349V-4.1h4.59a3.135,3.135,0,0,1,2.124.562,1.927,1.927,0,0,1,.61,1.489,1.947,1.947,0,0,1-.61,1.465A3.042,3.042,0,0,1,592.676,0h-13.33A3.142,3.142,0,0,1,577.2-.586a1.911,1.911,0,0,1-.635-1.465A1.891,1.891,0,0,1,577.2-3.54a3.239,3.239,0,0,1,2.148-.562h4.59V-29.248a9.725,9.725,0,0,0-3.2-7.422q-3.2-2.979-8.911-2.979a13.134,13.134,0,0,0-7.666,2.2q-2.295,1.563-7.568,7.373V-4.1h4.639a3.148,3.148,0,0,1,2.1.562,1.891,1.891,0,0,1,.635,1.489,1.911,1.911,0,0,1-.635,1.465,3.054,3.054,0,0,1-2.1.586H547.852a3.054,3.054,0,0,1-2.1-.586,1.911,1.911,0,0,1-.635-1.465,1.891,1.891,0,0,1,.635-1.489,3.148,3.148,0,0,1,2.1-.562h4.639V-57.129h-5.518a3.054,3.054,0,0,1-2.1-.586,1.966,1.966,0,0,1-.635-1.514,1.911,1.911,0,0,1,.635-1.465,3.054,3.054,0,0,1,2.1-.586Zm96.436,40.234a21.707,21.707,0,0,1-6.714,16.016,22.183,22.183,0,0,1-16.187,6.641,22.176,22.176,0,0,1-16.26-6.665,21.77,21.77,0,0,1-6.689-15.991,21.827,21.827,0,0,1,6.689-16.04,22.176,22.176,0,0,1,16.26-6.665,22.183,22.183,0,0,1,16.187,6.641A21.764,21.764,0,0,1,653.027-21.045Zm-4.15,0a17.768,17.768,0,0,0-5.493-13.135,18.246,18.246,0,0,0-13.306-5.42,18.2,18.2,0,0,0-13.306,5.444,17.792,17.792,0,0,0-5.493,13.11,17.816,17.816,0,0,0,5.493,13.086A18.163,18.163,0,0,0,630.078-2.49a18.2,18.2,0,0,0,13.306-5.444A17.792,17.792,0,0,0,648.877-21.045Z" transform="translate(-4.346 63.33)"/></svg>