<svg xmlns="http://www.w3.org/2000/svg" width="208.89" height="102.19" viewBox="0 0 208.89 102.19"><path d="M41.47-54.23a1.437,1.437,0,0,0-1.32.66C37.62-50.71,26.07-37.4,20.24-30.91V-77.44c0-.66-.33-.88-.88-.88H7.81c-.77,0-.99.33-.99.88V-.99c0,.77.22.99.99.99H19.36c.66,0,.88-.22.88-.99V-25.08C25.63-18.59,36.41-5.39,40.48-.77A1.492,1.492,0,0,0,41.91,0H56.98c.66,0,.88-.55.55-.99C50.27-9.13,39.38-21.78,32.67-29.48c0-.22-.11-.33,0-.44,4.18-4.4,18.48-19.47,21.78-23.32.44-.55.22-.99-.55-.99ZM89.98-10.67a20.111,20.111,0,0,1-7.81,1.32c-7.92,0-10.78-3.52-10.78-7.59,0-4.73,3.85-7.59,12.54-7.59a45.254,45.254,0,0,1,6.05.33Zm12.87-22.88c0-12.21-6.6-21.78-21.89-21.78a40.868,40.868,0,0,0-16.72,3.3,1.045,1.045,0,0,0-.66,1.1v9.57a.643.643,0,0,0,.88.66,32.721,32.721,0,0,1,14.41-3.08c9.68,0,11.11,5.72,11.11,8.25v1.32c-.99-.11-3.52-.22-6.82-.22-14.3,0-24.75,5.83-24.75,17.49C58.41-4.51,67.98,1.1,79.97,1.1c7.48,0,13.86-1.1,22.88-4.95.22-.11.22-.22.22-.44-.22-2.31-.22-4.51-.22-6.93ZM115.61-.88c0,.55.22.88.88.88h11.55a.81.81,0,0,0,.88-.88V-39.27a14.084,14.084,0,0,1,10.67-4.51c6.38,0,9.46,4.18,9.46,11.44V-.99a.875.875,0,0,0,.99.99h11.44c.55,0,.88-.22.88-.99V-33.55c0-17.6-10.12-21.78-18.37-21.78a24.249,24.249,0,0,0-15.95,6.05,23.951,23.951,0,0,0-.77-4.18c-.22-.55-.55-.77-1.32-.77H115.94c-.66,0-.77.22-.77.77.22,2.2.44,8.14.44,11.88Zm60.94-53.35c-.66,0-.88.22-.88.77V.66c0,9.46-3.74,11.55-9.46,11.55-.55,0-.77.33-.77.88v9.68a.89.89,0,0,0,.88.99,20.332,20.332,0,0,0,2.53.11c4.51,0,11-1.43,14.63-5.72,3.52-4.4,5.5-8.91,5.5-21.01v-50.6c0-.55-.33-.77-.88-.77Zm5.83-7.37a7.217,7.217,0,0,0,7.59-7.59c0-4.4-2.86-7.59-7.59-7.59a7.277,7.277,0,0,0-7.59,7.59A7.159,7.159,0,0,0,182.38-61.6ZM201.41-.99c0,.66.33.99,1.1.99h11.33c.77,0,.99-.22.99-.88V-53.46c0-.66-.22-.77-.88-.77H202.29c-.55,0-.88.22-.88.77Zm6.71-60.61a7.159,7.159,0,0,0,7.59-7.59c0-4.4-2.75-7.59-7.48-7.59a7.277,7.277,0,0,0-7.59,7.59C200.64-64.68,203.61-61.6,208.12-61.6Z" transform="translate(-6.82 78.32)" fill="#6a6a6a"/></svg>