<svg xmlns="http://www.w3.org/2000/svg" width="553.591" height="128.508" viewBox="0 0 553.591 128.508"><path d="M10.166-13.591q0-.221-.055-1.16T9.945-16.8q-.11-1.1-.221-2.1t-.11-1.326v-1.436A14.445,14.445,0,0,1,10.5-26.63a14.445,14.445,0,0,0,.884-4.972,39.254,39.254,0,0,0-1.16-9.448,38.812,38.812,0,0,1-1.16-9.337q0-2.652.884-3.37a7.757,7.757,0,0,0,1.436-1.492,2.086,2.086,0,0,0-.221-.718,2.086,2.086,0,0,1-.221-.718.53.53,0,0,1-.387-.166.53.53,0,0,0-.387-.166,2.428,2.428,0,0,1-.552.608q-.442.387-.442.608v-5.083a.967.967,0,0,1,.939.552,1.536,1.536,0,0,1,.055,1.215,1.062,1.062,0,0,1,.994-.663,1.9,1.9,0,0,0,1.215-.442l.11-.221a2.881,2.881,0,0,0-.829-1.657q-.829-.994-1.492-.994a.815.815,0,0,0-.773.387.93.93,0,0,1-.884.387.909.909,0,0,1-.276-.055.909.909,0,0,0-.276-.055l1.215-1.1A3.132,3.132,0,0,0,7.68-64.7q-.829-.276-.829-1.713a3.232,3.232,0,0,0,1.989-.663A12.638,12.638,0,0,0,10.5-68.564a15.09,15.09,0,0,1,1.6-1.492,3.169,3.169,0,0,1,2.044-.663.318.318,0,0,0-.11.221v.331a1.2,1.2,0,0,1-.276.608,1.2,1.2,0,0,0-.276.608q0,.111.221.276a.671.671,0,0,0,.331.166,4.618,4.618,0,0,0,.773-.221,3.617,3.617,0,0,1,.884-.221h.221q1.1,0,2.32,2.652a45.188,45.188,0,0,1,2.21,6.022q.994,3.37,1.713,6.464a23.944,23.944,0,0,1,.718,3.978v9.392a.938.938,0,0,0-.387.5,1.677,1.677,0,0,0-.166.608,17.413,17.413,0,0,0,.663,4.7,44.661,44.661,0,0,0,1.547,4.586l.221.221.331.331a6.288,6.288,0,0,1,1.6,1.823q.608,1.05,1.1,1.989a12.176,12.176,0,0,0,.994,1.6,1.434,1.434,0,0,0,1.16.663,2.9,2.9,0,0,0,2.044-.663,10.358,10.358,0,0,0,1.326-1.492,13.342,13.342,0,0,1,1.326-1.547,2.926,2.926,0,0,1,2.155-.718h.884a4.528,4.528,0,0,0-1.215.608,1.325,1.325,0,0,0-.331,1.05h4.309q.442,0,.663-.884t.387-1.934a9.893,9.893,0,0,1,.5-1.934,1.216,1.216,0,0,1,1.215-.884v.663a4.981,4.981,0,0,1-.387.608q-.276.387-.166.5a1.166,1.166,0,0,0,.5.884,1.643,1.643,0,0,0,.829.221,2.974,2.974,0,0,0,.939-.166,2.974,2.974,0,0,1,.939-.166q0-1.1-.663-1.326a1.676,1.676,0,0,1-.994-1.1q0-.11.055-1.05a3.093,3.093,0,0,0-.055-1.16,3.042,3.042,0,0,0-.221-.829,2.626,2.626,0,0,0-.331-.718H44.2a1.938,1.938,0,0,1,.552.221l.663.331h.221q.552,0,1.16-1.05a11.055,11.055,0,0,1,.718-1.16,1.874,1.874,0,0,1-1.436-.387,1.629,1.629,0,0,1-.663-1.381h3.2a4.645,4.645,0,0,0,.166.884,1.994,1.994,0,0,0,.387.884h.552a9.906,9.906,0,0,1,2.6-4.144A5.914,5.914,0,0,1,56.575-43.2h.331l4.42,1.1q.11.11.387,0a1.357,1.357,0,0,1,.5-.111,1.985,1.985,0,0,0-.773-1.878,8.347,8.347,0,0,0-1.657-.718,11.108,11.108,0,0,1-1.657-.663q-.773-.387-.773-1.713a1.23,1.23,0,0,0,.552.11h.663q.11.11.773.608a3,3,0,0,0,.773.5,6.835,6.835,0,0,0,2.1-.166,15.278,15.278,0,0,1,1.989-.276q-1.1-3.315-.939-4.144a.8.8,0,0,1,.994-.718q.829.11,1.989.387a1.978,1.978,0,0,0,2.044-.718q.221,0,.442.331a1.188,1.188,0,0,1,.221.663,3.237,3.237,0,0,1-.387.773,11.87,11.87,0,0,0-.773,1.657q-.387.994-.773,2.044a5.4,5.4,0,0,0-.387,1.823q0,.11.055.552t.055.552q.221-.442.663-1.16a3.048,3.048,0,0,1,.994-1.05q-.331,1.1.11,1.436a2.015,2.015,0,0,0,1.05.387l1.215.11a.943.943,0,0,1,.829.5q.11.221.387.884a9.348,9.348,0,0,0,.608,1.215l.884,1.547-8.4-.884-.552.884q.442,0,1.547.11a17.15,17.15,0,0,1,2.265.387,10.8,10.8,0,0,1,2.1.718,2.017,2.017,0,0,1,1.16,1.1l-7.072-.442q-.221,0,.221.331t1.05.773q.608.442,1.16.829t.552.5a.708.708,0,0,1-.442.663l-.994.5-.994.5a.708.708,0,0,0-.442.663H61.768a2.733,2.733,0,0,0,.387.718q.387.608.166.829-.331.552-.552.608a3.918,3.918,0,0,0-.5.166,2.783,2.783,0,0,0-.773.608,11.715,11.715,0,0,0-1.381,1.934,2.428,2.428,0,0,1-.552.608,3.731,3.731,0,0,1-.663.5V-28.4h-.994a6.656,6.656,0,0,0,.276,1.989,6.656,6.656,0,0,1,.276,1.989A2.808,2.808,0,0,1,56.63-22.6a11.718,11.718,0,0,1-1.989,1.768,17.727,17.727,0,0,1-2.376,1.436,12.231,12.231,0,0,1-1.989.829,2.57,2.57,0,0,0-2.21-1.657h-.552a4.994,4.994,0,0,0,2.707,3.591,28.686,28.686,0,0,0,5.359,2.376q2.983.994,5.967,1.768a21.813,21.813,0,0,1,4.641,1.657,3.828,3.828,0,0,1,1.326,1.05q.332.5.663.939a2.193,2.193,0,0,0,.773.663,3.479,3.479,0,0,0,1.657.11.909.909,0,0,0,.055.276.909.909,0,0,1,.055.276q0,1.436-1.768,1.1a.939.939,0,0,1,.387.5A1.677,1.677,0,0,1,69.5-5.3l-.221.221q-.221.221-.331.221l-.221.11h-.221a.1.1,0,0,1-.11-.11L65.635-7.514v-.552l.552-1.1H64.641a6.034,6.034,0,0,0,1.271,3.536,5.876,5.876,0,0,0,3.149,2.32L67.293.331a9.436,9.436,0,0,1-3.149.829.968.968,0,0,1-.994-.773,10.465,10.465,0,0,1-.221-1.768A4.16,4.16,0,0,0,62.1-3.536q0,.552.055,1.326t-1.16.773h-.221a5.205,5.205,0,0,0,.276-.829,5.206,5.206,0,0,1,.276-.829v-.552q-.884-.552-1.436-.884a2.531,2.531,0,0,0-1.326-.331,2.643,2.643,0,0,0-2.376,1.326,7.258,7.258,0,0,0-1.05,2.652h-.221a.944.944,0,0,1-.994-.718q-.221-.718-.442-1.547a4.3,4.3,0,0,0-.663-1.436q-.442-.608-1.436-.276-.221-.663-.773-2.21a3.922,3.922,0,0,0-1.436-2.1,7.081,7.081,0,0,1-.829.939q-.608.608-1.326,1.271T45.691-5.8a1.772,1.772,0,0,1-.939.5,3.245,3.245,0,0,0-.276-.718,12.182,12.182,0,0,0-.718-1.326q-.442-.718-.884-1.326a1.185,1.185,0,0,0-.884-.608q-.773,0-.994,1.1a7.18,7.18,0,0,1-.552,1.768,9.71,9.71,0,0,0-.773-1.436q-.552-.884-1.215-.884a.318.318,0,0,0-.221.11,2.557,2.557,0,0,1-.552.331,1.7,1.7,0,0,1-.663.221h-.442a2.634,2.634,0,0,1-.166-.829q-.055-.608-.166-1.271a5.861,5.861,0,0,0-.331-1.215q-.221-.552-.663-.552a2.13,2.13,0,0,0-1.05.276,2.13,2.13,0,0,1-1.05.276,1.643,1.643,0,0,1-.829-.166,2.8,2.8,0,0,1-.718-.939q-.221,1.326-1.215,1.326v-.718a1.007,1.007,0,0,1,.11-.608l.221-.221.331-.331.11-.221a.1.1,0,0,1-.11-.11v-.221q-.331-.11-1.436-.5t-1.326-.5q-.773-.552-.552-.994a2.756,2.756,0,0,0,.221-1.215H25.967a5.862,5.862,0,0,0,.055.663,8.077,8.077,0,0,1,.055.994,3.458,3.458,0,0,1-.11.939.448.448,0,0,1-.442.387h-4.2a.848.848,0,0,0-.11.331.981.981,0,0,0-.11.442,1.638,1.638,0,0,0,1.271.994q.829.11.939,1.215,0,.442.055,1.768t.055,1.768q0,.331.055,1.16a14.144,14.144,0,0,1,0,1.768,5.512,5.512,0,0,1-.331,1.657.966.966,0,0,1-.939.718,8.033,8.033,0,0,1-2.32-.331,8.032,8.032,0,0,0-2.32-.331h-.221a8.127,8.127,0,0,0-.331.884,3.617,3.617,0,0,0-.221.884q-.11,0-.331.442a1.938,1.938,0,0,0-.221.552q0,.221.442.663a3.145,3.145,0,0,0,.663.552H16.8A3.643,3.643,0,0,1,14.641.663,3.827,3.827,0,0,0,12.376,0V-2.652a.733.733,0,0,0,.608-.055.938.938,0,0,0,.5-.387,2.121,2.121,0,0,0-.166-1.16,4.773,4.773,0,0,1-.276-1.05H11.823q-.11-.884-.276-2.155a1.275,1.275,0,0,0-1.381-1.271ZM13.481,1.326h-.552V.773ZM62.32-2.1q.442,0,.442.608t-.442.608q-.442,0-.442-.608T62.32-2.1ZM48.066-5.856h.111q.11,0,.11-.055t.111-.055l.221.11.552.552.11.221a.318.318,0,0,1-.11.221L47.514-5.3Zm3.867-.552q-.442,0-.442.552t.442.552q.442,0,.442-.552T51.934-6.409Zm2.21-.552q-.442,0-.442.552t.442.552q.442,0,.442-.552T54.144-6.961Zm-1.657,0h1.326a1.309,1.309,0,0,0-.5-.994,8.038,8.038,0,0,0-.829-.663Zm10.387-1.1q-.221-.11-.221.221t.221.331q.221-.11.221-.276T62.873-8.066Zm-41.1-1.657h.552v-.552h-.552Zm36.8-.552h.552v-.552Zm-1.657-2.762a1.142,1.142,0,0,0-.663,1.1h.663Zm-18.122.552v-.552h-.552Zm1.657-1.1q.552-.11.552-.994v-.663Zm-18.122-2.1a2.75,2.75,0,0,0,1.215-.331,2.75,2.75,0,0,0,.994-.773H22.32ZM43.2-15.8h.442v-.552H43.2Zm-3.978-2.21a4.149,4.149,0,0,1,.387.442q.166.221.276.221.773,0,.939-.276a1.643,1.643,0,0,0,.166-.829,2.081,2.081,0,0,0-.166-.829.7.7,0,0,0-.718-.387.318.318,0,0,0-.221.11q-.11,0-.276.387a1.919,1.919,0,0,1-.387.608v.552Zm3.978-.552h.442l-.442-.442ZM26.63-20.221h.663l-.663-.552Zm23.646-1.547a4.577,4.577,0,0,0,.055.829,1.665,1.665,0,0,0,.5.718l1.934-.773a1.472,1.472,0,0,0,.829-1.547v-.884q0-.442-.552-.552l-1.1.994v-.773q0-.773.276-.994a1.1,1.1,0,0,0,.276-.884,1.643,1.643,0,0,0-.166-.829q-.166-.276-.939-.276a.887.887,0,0,0-.829.608,4.121,4.121,0,0,0-.331,1.436,12.445,12.445,0,0,0,0,1.657Q50.276-22.21,50.276-21.768Zm-12.044.552q.552-.221.552-1.1h-.552Zm-2.21-1.1q-.221-.221-.221.166t.221.387a.354.354,0,0,0,.221-.331A.2.2,0,0,0,36.022-22.32Zm-.552-1.1q-.442,0-.442.552t.442.552q.442,0,.442-.552T35.47-23.425ZM48.619-28.4a3.231,3.231,0,0,1-.331.276q-.221.166-.221.276v3.867h.552a5.041,5.041,0,0,0,.663-1.271,3.743,3.743,0,0,1,.994-1.492q-.11-.221-.5-.829a5.348,5.348,0,0,0-.608-.829h-.552Zm-6.63.552h.663l-.663-.552Zm11.6-.552q.221.552,1.1.552a1.834,1.834,0,0,0,.718-.166.7.7,0,0,0,.387-.718v-.221l-.276-.276a1.475,1.475,0,0,0-.387-.276l-.221-.11-.221.11a2.742,2.742,0,0,0-.608.5A2.741,2.741,0,0,0,53.591-28.4Zm-3.315-1.1q0,.11.221.276a3.231,3.231,0,0,1,.331.276.1.1,0,0,0,.11.11h.221l.221-.11-.552-.552-.221-.11q-.11,0-.11.055t-.111.055Zm15.359-1.1q-.11.221-.5.221a.821.821,0,0,1-.608-.221q-.11-.221.552-.221T65.635-30.608ZM48.619-34.475a2.443,2.443,0,0,0,.663,1.381q.663.829,1.215.829h.331a18.286,18.286,0,0,0,2.155-.718A1.749,1.749,0,0,0,54.254-34.7a.318.318,0,0,0-.11-.221l-.552-.552a3.145,3.145,0,0,1-.552-.663v-.552l.221-.442a1.286,1.286,0,0,1,.221-.331.318.318,0,0,0,.111-.221q-.221-.221-.829-.884a4.221,4.221,0,0,0-.829-.773l-.552.442v4.42h-.552a1.938,1.938,0,0,1-.552-.221,1.938,1.938,0,0,0-.552-.221h-.552q-.11,0-.331.221Zm10.939.552h.773a.954.954,0,0,0-.773-.994Zm0-4.088a3.507,3.507,0,0,0,.221.994,13.48,13.48,0,0,0,.552,1.381,6.229,6.229,0,0,0,.718,1.215q.387.5.718.5h.663v-.5a.752.752,0,0,0-.111-.5,1.723,1.723,0,0,0-.276-.552,1.47,1.47,0,0,1-.276-.663.318.318,0,0,0,.111-.221.45.45,0,0,1,.11-.331,1.731,1.731,0,0,1,.331-.442.909.909,0,0,1,.055-.276,1.224,1.224,0,0,0,.055-.387,2.118,2.118,0,0,0-.221-1.05,5.71,5.71,0,0,0-.884-1.05L60.994-40a1.142,1.142,0,0,0-1.1.663A2.942,2.942,0,0,0,59.558-38.011Zm-44.42.884.5.5a2.741,2.741,0,0,0,.608.5,8.222,8.222,0,0,1,.663-1.6,3.4,3.4,0,0,0,.442-1.6v-.552a5.118,5.118,0,0,0-1.215,1.05,11.482,11.482,0,0,0-.994,1.16l-.11.221Zm39.006-3.536a2.837,2.837,0,0,0,.331,1.381,3.343,3.343,0,0,1,.331,1.6h.663a4.892,4.892,0,0,1,.276-1.657,1.826,1.826,0,0,1,1.16-1.1,2.338,2.338,0,0,0-1.989-1.1H54.7q-.11,0-.276.221t-.276.221Zm22.1-1.436q0-.221-.608-.663t-.608-.552a1.359,1.359,0,0,0,.221-.552,3.322,3.322,0,0,0,.11-.552q-1.547-.442-2.376-.608a5.139,5.139,0,0,1-1.16-.331.5.5,0,0,1-.331-.442q0-.276.11-1.16l1.878-.552a3.89,3.89,0,0,1,1.271.442,17.482,17.482,0,0,1,1.823.994q1.1.663,2.32,1.436a2.653,2.653,0,0,1-1.326,2.155q-1.326.939-2.1,1.381-.552-.11-.552-.994Zm-11.16,0q.111-.221-.276-.221t-.276.221a.354.354,0,0,0,.331.221A.2.2,0,0,0,65.083-42.1Zm7.182-3.315q-.111.221-.276.221t-.276-.221q-.11-.221.276-.221T72.265-45.414Zm-1.989-.552q.221,0-.055.11a2.963,2.963,0,0,1-.718.166q-.442.055-.939.166a3.781,3.781,0,0,1-.718.111q-.221,0,.055-.111a2.963,2.963,0,0,1,.718-.166q.442-.055.939-.166A3.781,3.781,0,0,1,70.276-45.967Zm-9.5-1.657h.552a5.45,5.45,0,0,0,.773.276,5.451,5.451,0,0,1,.773.276,4.729,4.729,0,0,0-.5.055,4.568,4.568,0,0,1-.608.055q-.331,0-.884-.055a.886.886,0,0,1-.773-.608Zm15.912-.994a1.812,1.812,0,0,1,.829.276.817.817,0,0,1,.5.718h-2.1a1.36,1.36,0,0,1,.221-.608A.641.641,0,0,1,76.685-48.619Zm-1.657-3.425v1.215l-.552-.663ZM65.635-53.37v.221a.1.1,0,0,0,.11.11,3.1,3.1,0,0,1-.055.608q-.055.276-.608.387V-52.6q0-.884.552-.994Zm-54.254.331h.442v-.552h-.442Zm5.746-11.05a.73.73,0,0,0-.773.718,7.993,7.993,0,0,0-.11,1.16v.884a6.063,6.063,0,0,0,.773-.331q.884-.442.884-.773a3.888,3.888,0,0,0-.166-.829,1.924,1.924,0,0,0-.387-.829Zm-7.514-.552a1.142,1.142,0,0,0,1.1.663v-.663ZM128.508-.11a7.452,7.452,0,0,1-2.155-.11,14.453,14.453,0,0,1-2.6-.718,14.844,14.844,0,0,1-2.431-1.16,4.216,4.216,0,0,1-1.547-1.436v-.552a6.274,6.274,0,0,0-1.05-2.6,8.572,8.572,0,0,0-1.492-1.547q-.773-.608-1.436-1.1a3.072,3.072,0,0,1-.994-1.271,1.042,1.042,0,0,1-.055-.608,5.463,5.463,0,0,0,.055-.773.646.646,0,0,0-.221-.552,1.262,1.262,0,0,0-.884-.055,1.992,1.992,0,0,0-.276.663,5.451,5.451,0,0,1-.276.773,3.94,3.94,0,0,1-.884,1.381A13.507,13.507,0,0,1,110.773-8.4a12.743,12.743,0,0,0-1.436,1.326,2.09,2.09,0,0,0-.608,1.436v.552q.221-.11.829-.331a3.042,3.042,0,0,1,.829-.221q.111,0,.276.221a3.23,3.23,0,0,0,.276.331v.11a.318.318,0,0,0,.11.221q0,.552-.221.608a2.054,2.054,0,0,1-.5.055.808.808,0,0,0-.5.166q-.221.166-.221.829-.11,0-.5.663t-.5.663q0-.221-.773-.11t-.884,0q-.552-.884-.829-.773a3.812,3.812,0,0,1-1.16.11,2.379,2.379,0,0,1-1.326.939q-.884.276-1.823.608a7.212,7.212,0,0,0-1.6.773A1.386,1.386,0,0,0,99.558.994H93.37q-.11.552-.5.552h-.829a12.032,12.032,0,0,1-5.138-1.1A4.009,4.009,0,0,1,84.53-3.536q0-.994.055-1.768a4.394,4.394,0,0,1,.608-1.768,1.923,1.923,0,0,0-.829-.387,3.888,3.888,0,0,0-.829-.166,3.888,3.888,0,0,0-.829.166,1.924,1.924,0,0,0-.829.387,1.452,1.452,0,0,1,.331.718,3.782,3.782,0,0,1,.11.718,2.328,2.328,0,0,0,.055.387,2.328,2.328,0,0,1,.055.387A2.309,2.309,0,0,1,80.5-5.635a4.934,4.934,0,0,1-.884-1.878,9.3,9.3,0,0,1-.276-2.265,7.161,7.161,0,0,0-.221-1.934,1.938,1.938,0,0,0-.221-.552,8.82,8.82,0,0,0-.552-.939q-.331-.5-.608-.939a1.723,1.723,0,0,1-.276-.552q-.11-.331-.276-1.1t-.331-1.713q-.166-.939-.331-1.713a6.089,6.089,0,0,1-.166-1.1,3.379,3.379,0,0,0,.608-.442,2.052,2.052,0,0,0,.5-.552v-.11a2.937,2.937,0,0,0-.276-1.326,2.452,2.452,0,0,1-.276-1.1,3.1,3.1,0,0,1,.331-1.271,1.063,1.063,0,0,1,.994-.718h.331a.934.934,0,0,1,.387.442,1.3,1.3,0,0,1,.166.552l.994-.442a1.676,1.676,0,0,0-.994-.884q-.663-.221-1.271-.387a4.945,4.945,0,0,1-1.1-.442.986.986,0,0,1-.5-.939.617.617,0,0,1,.331-.608,2.381,2.381,0,0,1,.773-.221,2.38,2.38,0,0,0,.773-.221q.331-.166.331-.829h3.425v-.994l-2.762-1.1V-32.6a4.79,4.79,0,0,1,.718-2.983A3.733,3.733,0,0,1,81.492-36.8a8.74,8.74,0,0,1,1.823-.442,1.452,1.452,0,0,0,1.215-.773,1.8,1.8,0,0,1-.5-.166.938.938,0,0,1-.5-.387l-.11-.221a1.508,1.508,0,0,1,.608-1.381,4.176,4.176,0,0,1,1.436-.552l1.657-.331a3.153,3.153,0,0,0,1.271-.5q.11,0,.11-.773a2.086,2.086,0,0,0-.11-.663q.221-.221.939-.829a4.023,4.023,0,0,0,.829-.829v-.884l-1.1-1.547v-.552a2.052,2.052,0,0,1,.5-.552,3.379,3.379,0,0,1,.608-.442l.221-.11.221.11a1.732,1.732,0,0,1,.442.331q.221.221.221.331H95.58a1.074,1.074,0,0,0,.221.552q.221.331.442.331a3.129,3.129,0,0,0,2.32-.552A11.045,11.045,0,0,0,100-49.116a7.776,7.776,0,0,1,1.6-1.492,4.193,4.193,0,0,1,2.707-.552,4.42,4.42,0,0,1,1.547.829q1.215.829,2.652,1.878t2.762,2.044q1.326.994,1.878,1.326a3.048,3.048,0,0,1,.994,1.05,8.651,8.651,0,0,1,.773,1.657,13,13,0,0,1,.5,1.768,3.078,3.078,0,0,1,.055,1.271,1.614,1.614,0,0,1,1.05.608,10.542,10.542,0,0,1,.718,1.05,6.9,6.9,0,0,0,.663.939,1.238,1.238,0,0,0,.994.387,1.691,1.691,0,0,0,.11.994q.221.663.5,1.436t.552,1.436a2.917,2.917,0,0,1,.276.994v.663l.221.221a.45.45,0,0,0,.331.11v.331a.848.848,0,0,0,.111.331,4.386,4.386,0,0,1-1.989-.442,4.144,4.144,0,0,0-1.878-.442q0,.11.276,1.326t.718,1.215h4.309q.221,0,.11.442a4.96,4.96,0,0,1-.387.994q-.276.552-.5,1.05a.918.918,0,0,0-.11.718l1.1,3.646q.221.884.994.773t.884.884a2.178,2.178,0,0,1-.5.884q-.5.663-.387.994a1.414,1.414,0,0,0,.552.884q.442.331.884.608a4.677,4.677,0,0,1,.829.663.839.839,0,0,1,.276.829l-.331,2.32q0,.221.442.552a5.625,5.625,0,0,0,1.05.608,11.511,11.511,0,0,1,1.16.608,1.8,1.8,0,0,1,.663.552.225.225,0,0,0,.055.166.437.437,0,0,1,.055.276,15.29,15.29,0,0,1,.442,1.768,3.222,3.222,0,0,0,.442,1.326,3.017,3.017,0,0,0,1.215.663l2.486.994q1.381.552,2.707,1.215a7.5,7.5,0,0,1,1.878,1.215q-.994.221-1.16.718a2.016,2.016,0,0,0-.055,1.05q.111.552.221,1.16a1.256,1.256,0,0,1-.331,1.1,3.646,3.646,0,0,1-1.823.829,19.151,19.151,0,0,1-4.144.331,1.351,1.351,0,0,1-.994-.331,3.4,3.4,0,0,1-.552-.718,9.869,9.869,0,0,1-.442-.884A2.074,2.074,0,0,0,128.508-.11ZM92.818-9.171q.221-.221-.221-.221t-.331.221a.354.354,0,0,0,.331.221A.2.2,0,0,0,92.818-9.171Zm1.1-.994q-.442,0-.442.5t.442.5q.442,0,.442-.5T93.923-10.166Zm10.387,0q-.442,0-.442.5t.442.5q.552,0,.552-.5T104.309-10.166Zm-5.414,0a6.285,6.285,0,0,1,.773-.608,1.126,1.126,0,0,0,.552-.939H98.9ZM86.188-15.8a5.372,5.372,0,0,1,1.05,1.934,2.941,2.941,0,0,0,1.16,1.713q1.1.331,1.768.552a5.663,5.663,0,0,0,1.215.276l1.1.11q.552.055,1.436.055a4.954,4.954,0,0,0,1.547-.166,2.65,2.65,0,0,0,.773-.442q.332-.276.718-.608a6.063,6.063,0,0,1,1.381-.773,6.815,6.815,0,0,1,1.381-.276A6.815,6.815,0,0,0,101.1-13.7a4.978,4.978,0,0,0,2.32-2.431q.994-1.878,1.547-3.094a1.252,1.252,0,0,1,.994-.718,5.258,5.258,0,0,0,1.215-.387v-.442a4.7,4.7,0,0,0-.663-.442q-.552-.331-.552-.552t.552-.829q.552-.608.663-.608a49.337,49.337,0,0,0,1.492-6.685,42.629,42.629,0,0,0,.608-6.575,3.529,3.529,0,0,0-.663-2.265,3.819,3.819,0,0,0-1.768-1.215,9.712,9.712,0,0,0-2.376-.5q-1.271-.11-2.6-.11a5.349,5.349,0,0,0-1.6.663q-1.271.663-2.652,1.492t-2.486,1.547q-1.1.718-1.215.829a5.77,5.77,0,0,1-.221,1.05,7.211,7.211,0,0,1-.331,1.05,4.288,4.288,0,0,0-.552.221.45.45,0,0,1-.331.111.318.318,0,0,0-.221.11l-2.1,1.989a.1.1,0,0,0-.11.11v.221a.723.723,0,0,0,.331.718q.332.166.331,1.05a11.906,11.906,0,0,1-.055,1.271,4.823,4.823,0,0,1-.221.994l-.387,1.16L89.5-24.309a4.322,4.322,0,0,1-1.326,2.155,6.139,6.139,0,0,1-1.823,1.05q-.939.331-1.6.5T84.088-20a1.422,1.422,0,0,0,.552,1.326,3.521,3.521,0,0,0,1.326.442q.773.11,1.492.221a1.089,1.089,0,0,1,.939.773,4.012,4.012,0,0,1-.994.884A3.486,3.486,0,0,1,86.188-15.8Zm17.569,4.088h.552v-.442h-.552Zm8.4-1.436h.994v-1.1h-.994Zm-6.74-4.862a.6.6,0,0,0,.5.663,4.337,4.337,0,0,0,.939.11h.884l-.552-1.989a8.12,8.12,0,0,0-1.1.387A.9.9,0,0,0,105.414-18.011ZM94.475-39.006h.552v-.552h-.552Zm11.492-10.166q-.331,0-.331.5t.331.5q.442,0,.442-.5T105.967-49.171Zm-1.657-.442q.11-.221-.221-.221t-.331.221a.606.606,0,0,0,.387.221Q104.309-49.392,104.309-49.613ZM214.254-.221q-.332.11-1.381.5a7.82,7.82,0,0,0-1.381.608,1.291,1.291,0,0,0-.718,1.05q-.166.829-.718.829,0-2.32-.608-2.873a2.024,2.024,0,0,0-1.547-.5,13.538,13.538,0,0,0-1.989.276,2.6,2.6,0,0,1-2.044-.442,1.4,1.4,0,0,1-.718-.939,8.524,8.524,0,0,1-.055-.939,1.382,1.382,0,0,0-.166-.718q-.166-.276-1.16-.276a1.387,1.387,0,0,0-1.381.939,1.645,1.645,0,0,1-1.713.939,1.782,1.782,0,0,1,.663-1.436A1.782,1.782,0,0,0,200-4.641q0-.663-.387-.829a2.381,2.381,0,0,0-.939-.166q-.552,0-1.1.055a1.324,1.324,0,0,1-.884-.166,4.023,4.023,0,0,1-.829-.829q-.608-.718-.829-.718h-.221a.225.225,0,0,1-.166-.055.225.225,0,0,0-.166-.055,1.533,1.533,0,0,0-1.326.608,1.421,1.421,0,0,1-1.215.608q-.11,0-.5-.663t-.829-1.492q-.442-.829-.773-1.6a3.6,3.6,0,0,1-.331-.994v-.331q.111,0,.387-.442t.166-.552a4.742,4.742,0,0,0-.829-.884q-.718-.663-.718-.773a1.924,1.924,0,0,1-.387-.829q-.166-.608-.276-.939L186.3-28.84a9.391,9.391,0,0,0-.5-1.326,12.931,12.931,0,0,0-.718-1.436,5.77,5.77,0,0,0-1.05.221,7.21,7.21,0,0,0-1.05.331,1.79,1.79,0,0,0-.331.939q-.111.718-.331.718-.111.221-.608-.11a1.613,1.613,0,0,0-.718-.331,6.644,6.644,0,0,0,.221,1.1,2.149,2.149,0,0,1,.111,1.1l-.276.276a.452.452,0,0,1-.276.166h-4.42a7.08,7.08,0,0,1-.829.939l-.829.829a1.139,1.139,0,0,1-.442-.221,1.074,1.074,0,0,0-.552-.221,5.062,5.062,0,0,1-.11,1.326q-.111.331.552,1.215a3.874,3.874,0,0,0-1.436.552,2.6,2.6,0,0,0-.718.829,7.674,7.674,0,0,0-.5,1.1,9.161,9.161,0,0,1-.663,1.381,2.749,2.749,0,0,0-.5-.331,1.5,1.5,0,0,0-.5-.221q-.11-.11-.055,0t-.166.11q0,1.215.276,1.381a1.265,1.265,0,0,0,.663.166.9.9,0,0,1,.663.276,3.028,3.028,0,0,1,.276,1.713,2.618,2.618,0,0,0-1.657.442,3.714,3.714,0,0,0-.939,1.16q-.387.718-.773,1.547a4.434,4.434,0,0,1-1.16,1.492,1.27,1.27,0,0,1-.939.331h-1.16a9.514,9.514,0,0,0-1.05.055.668.668,0,0,0-.608.608,14.191,14.191,0,0,0-.276,2.762,4.325,4.325,0,0,1-.829,2.762,6.565,6.565,0,0,0-2.541.387,4.369,4.369,0,0,0-1.492,1.05,9.467,9.467,0,0,0-1.16,1.6A12.443,12.443,0,0,1,155.47-.221a2.608,2.608,0,0,1-.552-1.215,9.9,9.9,0,0,0-.276-1.215,1.415,1.415,0,0,0-.608-.829,2.876,2.876,0,0,0-1.768-.055,3.731,3.731,0,0,0-.663.5,2.428,2.428,0,0,0-.552.608l.276.276a1.475,1.475,0,0,0,.387.276h.552q0-.11.442-.331a1.938,1.938,0,0,1,.552-.221q.111,0,.331.221t.221.331v.11a.318.318,0,0,0,.11.221l-.11.221q-.111.11-.552.5a2.428,2.428,0,0,0-.552.608,6.62,6.62,0,0,0-.552,1.6q-.331,1.271-.442,1.713-.884-.442-1.768-2.762a44.755,44.755,0,0,1-1.6-5.249q-.718-2.928-1.16-5.58a26.523,26.523,0,0,1-.442-3.757v-.773a1.791,1.791,0,0,0,.5.276q.387.166.608.276h.442a2.428,2.428,0,0,0,.608-.552q.387-.442.608-.663v-.221a11.262,11.262,0,0,1-1.657-.884,10.725,10.725,0,0,1-1.768-.994,25.846,25.846,0,0,1-.387-2.928q-.055-1.05-.055-2.6a15.768,15.768,0,0,1,.276-2.983,15.768,15.768,0,0,0,.276-2.983,20.807,20.807,0,0,0-.276-3.425,21.514,21.514,0,0,1-.276-3.536v-.221q0-.11.442-.552a3.145,3.145,0,0,1,.663-.552v-.221l-.276-.608q-.276-.608-.608-1.492t-.608-1.878a7.029,7.029,0,0,1-.276-1.878,2.247,2.247,0,0,1,.331-1.271,2.043,2.043,0,0,0,.331-1.16V-46.3a3.031,3.031,0,0,0-.276-.884,3.918,3.918,0,0,1-.276-.773.433.433,0,0,1,.387-.5q.387-.055.884-.111a2.305,2.305,0,0,0,1.05-.442,2.939,2.939,0,0,0,.884-1.713q.221-.221,0-.994a4.976,4.976,0,0,1-.221-.994,5.733,5.733,0,0,1-1.271-.166q-.718-.166-.718.718v.221l1.215,1.215v.552a5.2,5.2,0,0,1-.829.276,3.888,3.888,0,0,1-.829.166V-53.7a2.1,2.1,0,0,0,1.934-.994,4.155,4.155,0,0,0,.608-2.21,3.8,3.8,0,0,1,1.16.331,13.163,13.163,0,0,1,1.768.884,15.435,15.435,0,0,1,1.713,1.16,3.571,3.571,0,0,1,.994,1.05,3.074,3.074,0,0,0-1.271.884,1.667,1.667,0,0,1-1.16.663h-.331a1.5,1.5,0,0,1-.5-.221,1.5,1.5,0,0,0-.5-.221v1.1q.111,0,.829.055a13.012,13.012,0,0,1,1.547.221,5.063,5.063,0,0,1,1.436.5q.608.331.608.773a3.187,3.187,0,0,1-.884,2.265,3.187,3.187,0,0,0-.884,2.265,1.085,1.085,0,0,0,.552.994q.552.331,1.16.663a6.106,6.106,0,0,1,1.16.829,1.763,1.763,0,0,1,.552,1.381q0,.221-.055.829t-.055.718a3.031,3.031,0,0,1-.276.884,3.918,3.918,0,0,0-.276.773,1.45,1.45,0,0,0,.939,1.547,5.192,5.192,0,0,0,1.713.331,31.942,31.942,0,0,0,.221,3.26,12.816,12.816,0,0,0,.442,2.6,6.547,6.547,0,0,1,.552,1.05q.442.939.552,1.16v.552a5.668,5.668,0,0,1-.773.5q-.663.387-.884.5v.552a15.3,15.3,0,0,0,1.215,3.2,1.4,1.4,0,0,0,.884.718q.442.055.939.11t1.381,1.492l.552-.552a12.28,12.28,0,0,1,.111-4.586,2.9,2.9,0,0,1,1.271-1.713,19.625,19.625,0,0,1,1.934-.884,4.741,4.741,0,0,0,2.1-2.1q1.1-2.1,1.768-3.536a9.579,9.579,0,0,1,2.652-3.094q.111.442.331,1.215a1.386,1.386,0,0,0,.773.994,3.731,3.731,0,0,1,.5-.663q.387-.442.608-.442.11-.11.552.221a1.616,1.616,0,0,0,.552.331q.221,0,1.05-.11t1.05-.11a4.132,4.132,0,0,0-.276-.994q-.276-.773-.166-.994,0-.11.5-.331a2.462,2.462,0,0,1,.608-.221,3.231,3.231,0,0,1,.331-.276q.221-.166.221-.276a4.79,4.79,0,0,0-.166-.718q-.166-.608-.387-1.381t-.387-1.492a5.274,5.274,0,0,1-.166-1.05,3.974,3.974,0,0,1,.608-1.657,3.284,3.284,0,0,1,1.05-1.326q.552.11.608.552a3.121,3.121,0,0,1-.055.994,3.415,3.415,0,0,0-.055,1.05.668.668,0,0,0,.608.608,2.749,2.749,0,0,0,.331-.5,1.36,1.36,0,0,0,.221-.608,21.019,21.019,0,0,1,.221-2.21q.221-1.657.221-2.1a.478.478,0,0,1,.221-.387.735.735,0,0,1,.442-.166,1.8,1.8,0,0,1,.5.166,1.919,1.919,0,0,1,.608.387v.221a1.28,1.28,0,0,1-.221.884,2.3,2.3,0,0,0-.221,1.326q.111,0,.221.166t.221.166q.11-.221.5-.884t.5-.884h.331a2.914,2.914,0,0,1,1.381.387q.718.387,1.492.829t1.547.939a4.07,4.07,0,0,0,1.326.608,1.689,1.689,0,0,0,.884,0q.663-.11.773,0a5.772,5.772,0,0,1,.276,1.16,3.239,3.239,0,0,0,.276,1.05,3.072,3.072,0,0,0,.994,1.271l1.326.994a5.772,5.772,0,0,1,1.16,1.16,2.877,2.877,0,0,1,.5,1.768,2.043,2.043,0,0,1-.331,1.16,1.862,1.862,0,0,0-.331,1.05.86.86,0,0,0,.552.884.949.949,0,0,1,.552.994v.663a12.364,12.364,0,0,1-.221,1.381,8.061,8.061,0,0,1-.331,1.381v.221a1.808,1.808,0,0,0,.221.994,1.426,1.426,0,0,0,.552.5q.331.166.718.331a1.817,1.817,0,0,1,.718.608,1.689,1.689,0,0,1,0,.884,1.689,1.689,0,0,0,0,.884q.111,0,.552.663a2.278,2.278,0,0,1,.442.884q.11.331.331,1.1t.387,1.657q.166.884.331,1.657a6.09,6.09,0,0,1,.166,1.1l.994,1.436,1.215,5.525L206.63-8.84l2.652,1.989,2.21,1.547,1.989,2.762.773.663Zm-9.834-2.21h.994q.663-.11,1.713-.276t1.05-.276v-.552l-1.326-.442a10.708,10.708,0,0,0-1.16-.387q-.608-.166-.939-.276l.221.442a.225.225,0,0,0,.055.166.225.225,0,0,1,.055.166v.11a.45.45,0,0,1-.331-.11,1.286,1.286,0,0,0-.331-.221ZM152.265-5.746h.442V-6.3h-.442Zm51.713-1.326A1.172,1.172,0,0,0,205.3-5.746a2.355,2.355,0,0,0-.221-1.215Q204.862-7.293,203.978-7.072ZM201.1-9.5q-.552,0-.552.5t.552.5q.442,0,.442-.5T201.1-9.5Zm-2.652-5.083.552.552a2.885,2.885,0,0,1,.608-.442,1.477,1.477,0,0,0,.608-.773V-15.8q-.111,0-.276-.221a.478.478,0,0,0-.387-.221q-.221,0-.608.442t-.5.552v.663Zm1.989,2.32q-.331,0-.331.5t.331.5q.552,0,.552-.5T200.442-12.265Zm-3.757-9.613a10.911,10.911,0,0,0,.718,1.05,6.7,6.7,0,0,0,1.16,1.271l.552-.663a3.579,3.579,0,0,0-.994-1.657,9.353,9.353,0,0,0-1.657-1.326l-.442-.442a1.731,1.731,0,0,1-.331-.442,5.122,5.122,0,0,0-.11.994,2.448,2.448,0,0,0-.111.773v.331Zm-46.63,8.4h.442v-.442Zm3.094-7.072a7.239,7.239,0,0,0,.773,2.818,21.511,21.511,0,0,0,.994,2.044.1.1,0,0,0,.111.11h.221q.773,0,1.05-1.326a5.441,5.441,0,0,1,1.381-2.541V-20a3.232,3.232,0,0,1-.276-.331q-.166-.221-.276-.221Zm42.431,4.42q-.221-.11-.221.221t.221.221a.2.2,0,0,0,.221-.221A.2.2,0,0,0,195.58-16.133Zm-46.74-3.315h.663V-20Zm15.359,0h.663V-20H164.2Zm-10.387-5.746a7.641,7.641,0,0,0,.276,1.934,1.23,1.23,0,0,0,1.271,1.05,2.043,2.043,0,0,0,1.16-.331,2.043,2.043,0,0,1,1.16-.331v-.442h-1.657l-.221-1.326q-.111-.552-.166-1.05a7.107,7.107,0,0,0-.166-.939v-.331a.5.5,0,0,1,.166-.442,2.453,2.453,0,0,1,.442-.221,1.006,1.006,0,0,0,.442-.331,1.337,1.337,0,0,0,.166-.773,7.994,7.994,0,0,0-.11-1.16.787.787,0,0,0-.884-.718,3.907,3.907,0,0,1-.939,2.707A3.907,3.907,0,0,0,153.812-25.193Zm42.873-.884h.552v-.552h-.552Zm2.21-.552q-.552,0-.552.608t.552.608q.442,0,.442-.608T198.9-26.63Zm-19.779-3.2q-.442,0-.442.5t.442.5q.442,0,.442-.5T179.116-29.834Zm-5.525-.552a5.207,5.207,0,0,0,.276-.829,5.206,5.206,0,0,1,.276-.829,2.557,2.557,0,0,0,.331-.552,1.938,1.938,0,0,0,.221-.552q0-.331-.552-.663h-.552a1.1,1.1,0,0,1-.331.387q-.221.166-.221.276Zm7.735-1.215.552-.442h-.552ZM155.47-32.6h1.657q-.221-.552-.5-.608a3.1,3.1,0,0,0-.608-.055.909.909,0,0,0-.276.055.909.909,0,0,1-.276.055Zm39.006-.552q-.442,0-.442.552t.442.552q.442,0,.442-.552T194.475-33.149Zm-10.5-1.989a.685.685,0,0,0,.442.718,2.816,2.816,0,0,0,.994.166.815.815,0,0,0-.387-.773,3.121,3.121,0,0,0-.939-.331Zm-4.309-.221a1.142,1.142,0,0,0,.663-1.1h-.663Zm2.21-2.983a2.07,2.07,0,0,0,.221,1.1q.221.331,1.1.331a2.681,2.681,0,0,0-1.326-2.32ZM148.84-43.536q-.442,0-.442.5t.442.5q.552,0,.552-.5T148.84-43.536Zm-.552,0,1.768-1.768.111-.442h-1.878Zm2.762-3.425q.221-.221-.166-.221t-.387.221a.354.354,0,0,0,.331.221A.2.2,0,0,0,151.05-46.961Zm0-2.1q-.221-.221-.221.166t.221.387a.606.606,0,0,0,.221-.387Q151.271-49.061,151.05-49.061ZM220,39.669q-.221-.221-.884-1.05t-.994-1.16h-.552a2.557,2.557,0,0,1-.552.331,1.938,1.938,0,0,1-.552.221,5.873,5.873,0,0,0-.166-.773,2.271,2.271,0,0,0-.276-.773l-.221-.11a.225.225,0,0,0-.166.055.225.225,0,0,1-.166.055h-.111a1.818,1.818,0,0,0-.552.11,1.387,1.387,0,0,0-.552.331,10.1,10.1,0,0,0-.773-2.762,3.414,3.414,0,0,0-2.1-1.768V29.834a3.888,3.888,0,0,1-.829-.166,3.888,3.888,0,0,0-.829-.166q-.221.11-1.16.5a4.286,4.286,0,0,0-1.16.608,3.8,3.8,0,0,1,.773-1.271q.331-.276.331-1.492a22.178,22.178,0,0,0-.442-4.088,14.967,14.967,0,0,0-1.215-3.867q-.11,0-.276.221a3.228,3.228,0,0,1-.276.331v.552a5.513,5.513,0,0,0,.111.663q.111.552.166,1.1a8.94,8.94,0,0,0,.166,1.05,4.326,4.326,0,0,1,.11.608v.442a2.247,2.247,0,0,0-1.271.331,2.247,2.247,0,0,1-1.271.331h-.331a8.639,8.639,0,0,1-2.1-1.713,3.174,3.174,0,0,1-.663-1.492,12.169,12.169,0,0,1-.11-1.713,9.566,9.566,0,0,0-.442-2.486,2.833,2.833,0,0,0-.608-.663,8.643,8.643,0,0,0-1.1-.829q-.608-.387-1.1-.773a2.263,2.263,0,0,1-.608-.608,5.5,5.5,0,0,1,.166-.939q.166-.718.387-1.547t.387-1.547a5.275,5.275,0,0,0,.166-1.05,1.808,1.808,0,0,1,.111-.442,1.809,1.809,0,0,0,.11-.442q.442,0,1.989-.055a3.22,3.22,0,0,0,2.21-.718,13.558,13.558,0,0,1,2.376,2.265,9.53,9.53,0,0,1,1.713,2.928,8.012,8.012,0,0,1,.387,1.381,7.914,7.914,0,0,0,.442,1.492,1.95,1.95,0,0,0,.884.994,2.555,2.555,0,0,0,1.713.11q-.331,1.436.166,1.934a2.486,2.486,0,0,0,1.271.663,11.268,11.268,0,0,0,1.657.221,2.488,2.488,0,0,1,1.436.5,7.99,7.99,0,0,1,.829,1.05q.5.718.994,1.547t.939,1.547q.442.718.552.939h.773q0-.11.5-.331a2.462,2.462,0,0,1,.608-.221l.221.221q0,.11.055.11t.055.11a.1.1,0,0,0,.111.11q.331.221,1.215.884t1.215.884a1.576,1.576,0,0,1,.939-.5,9,9,0,0,1,.994-.055,9,9,0,0,0,.994-.055,1.576,1.576,0,0,0,.939-.5l1.547,2.762a1.8,1.8,0,0,1,1.16-.939,6.614,6.614,0,0,1,1.492-.166,6.614,6.614,0,0,0,1.492-.166,1.8,1.8,0,0,0,1.16-.939,8.955,8.955,0,0,1,2.652-3.26,11.527,11.527,0,0,0,2.983-3.591q.11-.11,0-1.1a3.038,3.038,0,0,1,0-1.215l.552-.442a1.285,1.285,0,0,0,.221-.331l.221-.442a.981.981,0,0,0,.11-.442V14.807a5.617,5.617,0,0,1,.829-.939l.939-.939a7.7,7.7,0,0,0,.442-2.983,18.623,18.623,0,0,1,.221-3.2,16.269,16.269,0,0,1,.5-2.265q.387-1.381.829-2.873a22.824,22.824,0,0,0,.663-2.873,8.312,8.312,0,0,0,.11-2.265,1.9,1.9,0,0,0-.5-.829q-.5-.608-.608-.718v-5.3q-.442-5.193-.773-10.663T242.1-31.934a4.285,4.285,0,0,1-.221-.552,1.7,1.7,0,0,1-.221-.663,13.45,13.45,0,0,1-1.16-4.641q-.166-2.431-.166-4.972h.442q0-.11.166-.221t-.055-.331q-.111-.11-.5-.552a2.428,2.428,0,0,0-.608-.552,19.785,19.785,0,0,0-.608-3.591,14.479,14.479,0,0,1-.5-3.591q0-.663.276-.829t.276-.718a1.838,1.838,0,0,0-.276-.994,1.838,1.838,0,0,1-.276-.994,2.065,2.065,0,0,1,.5-1.436,2.561,2.561,0,0,0,.608-1.436,1.3,1.3,0,0,1,.773,1.326q0,.994.884.994a1.865,1.865,0,0,0,.939-.221.717.717,0,0,0,.387-.663v-.331q-.11-.221-.552-1.16a6.549,6.549,0,0,0-.552-1.05q-.221,0-.221-.331v-.331h.663a3.048,3.048,0,0,1,.608.166q.5.166,1.1.387t1.1.387a2.629,2.629,0,0,0,.718.166h2.21a.53.53,0,0,0,.387-.166,1.475,1.475,0,0,1,.387-.276q-.331-.552-1.657-.608t-1.657-.055q0-.442.331-.442a2.567,2.567,0,0,1,.718-.663,7.816,7.816,0,0,0,.829-.663,7.656,7.656,0,0,1,1.215.608q1.1.608,2.486,1.326t2.541,1.381a5.328,5.328,0,0,0,1.381.663q.221.221.608.663a1.271,1.271,0,0,1,.387.663v4.53l-.442.552a2.171,2.171,0,0,0-.829-1.05,3.094,3.094,0,0,0-1.16-.166,4.733,4.733,0,0,0-1.934.552,1.267,1.267,0,0,0-.718,1.768,6.775,6.775,0,0,0,.884.552q.773.442.994.552,0,.11.221.331a.318.318,0,0,1,.11.221l.111.111a.318.318,0,0,0,.11.221l-.221.221a4.568,4.568,0,0,1-.5,1.215,7.817,7.817,0,0,1-.608,1.1v.552l.331.331a.637.637,0,0,0,.442.221l.221.111a.1.1,0,0,0,.11-.111,1.5,1.5,0,0,0,.5-.552,1.723,1.723,0,0,0,.276-.552l.552.552v5.635a1.155,1.155,0,0,1,.939.5,6.285,6.285,0,0,1,.663,1.05,6.285,6.285,0,0,1,.442,1.16,4.789,4.789,0,0,1,.166.718,2.1,2.1,0,0,1,0,.994,11.739,11.739,0,0,0-.11,1.657,14.245,14.245,0,0,0,.11,1.768,1.92,1.92,0,0,0,.663,1.326q.663.773.939.5t.276.5a5.1,5.1,0,0,1-.055.718q-.055.387-.608.387a2.227,2.227,0,0,1-1.326-.663q-.774-.663-.994-.884-.111.221-.718,1.271t-1.381,1.05h-.331a3.323,3.323,0,0,0-.11-.552,1.36,1.36,0,0,0-.221-.552l-.331-.221q-.994,0-.994,1.326a1.036,1.036,0,0,0,.663,1.05.959.959,0,0,1,.663.939v.221l-2.32,1.215v.552l3.425,1.657v.331a4.393,4.393,0,0,1-.221,1.492,5.214,5.214,0,0,0-.221,1.713,3,3,0,0,0,.829-.11q.387-.11.718.552a1.364,1.364,0,0,0-.994.829,2.47,2.47,0,0,0-.111,1.271q.111.663.276,1.381a5.275,5.275,0,0,1,.166,1.05h.221a.318.318,0,0,0-.111.221v.331a6.09,6.09,0,0,1-.166,1.1q-.166.773-.387,1.713t-.442,1.768q-.221.829-.331,1.16-.11-.773-.442-.552a1.571,1.571,0,0,1-.884.221v4.2A7.465,7.465,0,0,0,252.6,1.1a4.535,4.535,0,0,0,.884.884q.773.663.773.773.111.221-.442,1.1a7.459,7.459,0,0,1-.884,1.215q0,.11-.387-.166a1.2,1.2,0,0,0-.608-.276,2.14,2.14,0,0,0,.331,1.436,2.374,2.374,0,0,1,.331,1.547,9.935,9.935,0,0,1-.552,3.26,28.666,28.666,0,0,1-1.271,3.094q-.718,1.492-1.271,2.873a7.258,7.258,0,0,0-.552,2.707V20a.917.917,0,0,1,.829-.608q.608-.055,1.05-.055V20l-.331,1.989q-.221,1.326-.331,1.326a3.464,3.464,0,0,1-1.271,1.271q-.939.608-1.934,1.215a5.183,5.183,0,0,0-1.547,1.381,1.724,1.724,0,0,0,0,1.878,2.557,2.557,0,0,0-.552-.331,1.938,1.938,0,0,0-.552-.221l-1.436-.11v1.16a5.214,5.214,0,0,1-.276,1.657,3.789,3.789,0,0,1-.939,1.492,2.389,2.389,0,0,1-1.768.663q-.884,0-1.492,1.16a2.266,2.266,0,0,0-.387,1.713q-.994-.221-1.326.055a1.682,1.682,0,0,0-.5.718,7,7,0,0,0-.276.939.765.765,0,0,1-.663.608q-.663,0-1.878.111a8.868,8.868,0,0,1-1.989,0q-.773-.11-.718-.5t1.823-1.271q-.221-.221.166-.608t.387-.608a3.852,3.852,0,0,0-.166-.663q-.166-.552-.387-1.1t-.442-1.05q-.221-.5-.442-.5-.663,0-1.05.939t-.829,2.155q-.442,1.215-.829,2.265a2.352,2.352,0,0,1-1.05,1.381,1.994,1.994,0,0,1-.387-.884q-.166-.663-.331-1.436a11.761,11.761,0,0,1-.221-1.381,2.635,2.635,0,0,0-.166-.829h-.552l-.166.5q-.166.5-.331,1.05t-.331.994a2.367,2.367,0,0,0-.166.552,6.576,6.576,0,0,1-1.1-1.215,6.934,6.934,0,0,1-1.215-1.878,1.445,1.445,0,0,1,.663-.663l.884-.442a.671.671,0,0,0-.166-.331q-.166-.221-.276-.221a4.683,4.683,0,0,0-.829.276,3.552,3.552,0,0,1-.939.276,1.511,1.511,0,0,0-.331.055,1.511,1.511,0,0,1-.331.055,3.1,3.1,0,0,1-.608-.055q-.276-.055-.5-.608a2.121,2.121,0,0,0-.5.939,8.927,8.927,0,0,0-.055,1.16,3.849,3.849,0,0,0,.221,1.492,8.412,8.412,0,0,0,.994,1.492l1.768-1.1V37.9Zm-4.641-6.188q-.221-.11-.221.221t.221.331q.331-.11.331-.276T215.359,33.481Zm-1.768-2.32q.221-.221-.166-.221t-.387.221Q213.37,31.713,213.591,31.16Zm18.9-.552q-.552,0-.552.608t.552.608q.442,0,.442-.608T232.486,30.608Zm-6.961-1.657a2.558,2.558,0,0,1,.331.552,2.557,2.557,0,0,0,.331.552V28.4h-.663Zm-15.249-1.657q-.221,0-.221.276t.221.276q.331-.11.331-.331T210.276,27.293Zm1.768-1.215q-.331-.11-.331.276t.331.387a.637.637,0,0,0,.221-.442A.2.2,0,0,0,212.044,26.077Zm28.287-1.1q-.221-.11-.221.331t.221.221a.354.354,0,0,0,.221-.331A.2.2,0,0,0,240.331,24.972Zm-30.939-4.088-.055.608a7.317,7.317,0,0,0,0,1.271,3.3,3.3,0,0,0,.331,1.215.885.885,0,0,0,.829.552q.773,0,1.381-1.05a3.652,3.652,0,0,0,.608-1.6q0-.773-1.271-.884T209.392,20.884Zm28.729,2.32q-.221-.221-.5.11t.055.552q.11.11.331-.166A.45.45,0,0,0,238.122,23.2Zm8.619.773a4.1,4.1,0,0,1,1.16-.331q1.05-.221,1.05-.331h.11l.111-.221-.221-.221q0-.221-1.05-.387t-1.16-.387Zm-2.983-1.989a.815.815,0,0,0,.387.773,1.865,1.865,0,0,0,.939.221,5.989,5.989,0,0,0-.111-1.05,1.033,1.033,0,0,0-.663-.829q-.111,0-.276.221a.671.671,0,0,0-.166.331ZM205.3,17.459a1.172,1.172,0,0,0-1.326,1.326v.442a2.223,2.223,0,0,0,.939-.718A1.684,1.684,0,0,0,205.3,17.459Zm38.453-4.53h.663v-.552h-.663Zm0-6.74h.663V5.635ZM248.619,0a2.741,2.741,0,0,0,.5.608,2.742,2.742,0,0,0,.608.5h.552a.1.1,0,0,0,.111-.11.318.318,0,0,1,.11-.221l.221-.221a2.128,2.128,0,0,0-.442-.994,1.228,1.228,0,0,0-.994-.663h-.221q0,.11-.221.221a.354.354,0,0,0-.221.331l-.11.11a.1.1,0,0,0-.111.11Zm.442-3.978.663-.552h-.663ZM251.381-20a1.007,1.007,0,0,0-.552.552,2.086,2.086,0,0,0-.111.663h1.215A1.3,1.3,0,0,0,251.381-20Zm1.547-17.459a.318.318,0,0,0-.221.11.45.45,0,0,0-.11.331q-.663,1.326-1.326,2.6a12.5,12.5,0,0,0-.994,2.486h.111a3.167,3.167,0,0,0,3.039-1.492,6.821,6.821,0,0,0,.829-3.37v-.221q-.111-.221-.608-.331A3.782,3.782,0,0,0,252.928-37.459Zm-7.293,1.547q-.552,0-.552.608t.552.608q.221,0,.221-.608T245.635-35.912Zm6.188-2.32q-.331,0-.331.608t.331.608q.552,0,.552-.608T251.823-38.232Zm-3.978-9.613h.773V-48.4Zm2.873,0h.663l-.663-.552Zm-10.939-7.845q-.442,0-.442.5t.442.5q.442,0,.442-.5T239.779-55.691ZM244.862-74.7a1.633,1.633,0,0,0-1.271.552,4.772,4.772,0,0,0-.829,1.326,1.2,1.2,0,0,0-.276-.608,4.8,4.8,0,0,0-.387-.5h-.442q-.221.11-.718.331a2.462,2.462,0,0,1-.608.221,1,1,0,0,1-.884-.552,7.73,7.73,0,0,1-.552-1.1,2.46,2.46,0,0,0-.5-.829q-.276-.276-.718.166a4.3,4.3,0,0,1-1.768-2.376,14.619,14.619,0,0,1-.221-2.707q0-.332.055-1.215t.055-1.1a6.983,6.983,0,0,0,1.16-.166,11.086,11.086,0,0,0,1.16-.276,1.5,1.5,0,0,1,.552-.5,1.723,1.723,0,0,1,.552-.276l.552.773h.552a1.461,1.461,0,0,0,1.271-.829,16.823,16.823,0,0,0,.939-1.823,9.8,9.8,0,0,1,1.05-1.823,2,2,0,0,1,1.713-.829.848.848,0,0,0,.331.111.45.45,0,0,0,.331.11l-.331,1.1q1.989-.442,2.32-.055a2.907,2.907,0,0,1,.331,1.713h.552a6.161,6.161,0,0,1,.773-1.768,1.826,1.826,0,0,1,1.657-.884,7.641,7.641,0,0,1-.276,1.934,8.431,8.431,0,0,0-.276,2.155q.111,0,.221.166t.11-.055a1.2,1.2,0,0,0,.442-.552,2.557,2.557,0,0,1,.331-.552h.552a2.557,2.557,0,0,0,.552.331,2.557,2.557,0,0,1,.552.331,8.66,8.66,0,0,0,.773,3.26,27.148,27.148,0,0,0,1.381,2.541q.718,1.16,1.271,2.155a4.064,4.064,0,0,1,.552,1.989v.331l-.552.552a2.153,2.153,0,0,0-.608.773q-.387.663-.5.884-.111,0-.442-.387t-.663-.829q-.331-.442-.608-.829l-.276-.387-.331.221q-.221.884-.5,1.934a20.049,20.049,0,0,1-.608,1.934,5.653,5.653,0,0,0-.829.11,5.652,5.652,0,0,1-.829.111,2.7,2.7,0,0,1-1.989-.663,7.706,7.706,0,0,1-1.16-1.492,11.845,11.845,0,0,0-1.05-1.492A2.034,2.034,0,0,0,244.862-74.7Zm5.083,1.326.331.331a.637.637,0,0,0,.442.221v-.552a1.731,1.731,0,0,0-.442-.331,1.285,1.285,0,0,1-.331-.221v.552Zm-9.061-3.978h.773l-.773-.552ZM284.53,2.431a4.044,4.044,0,0,0-.884-1.657A1.571,1.571,0,0,0,282.21.11a2.041,2.041,0,0,0-1.271.663,2.14,2.14,0,0,1-1.381.663,2.131,2.131,0,0,1-1.713-.221,2.2,2.2,0,0,1-.829-1.16,9.426,9.426,0,0,1-.331-1.713q-.111-.994-.221-1.878a11.224,11.224,0,0,1-1.6.331q-.829.11-.718,1.326a6.345,6.345,0,0,0-2.155-2.21,4.588,4.588,0,0,0-2.928-.994,20.786,20.786,0,0,0-.276-2.376,13.356,13.356,0,0,0-.5-2.376,10.378,10.378,0,0,0-.111-1.271q-.11-.829-.221-1.547t-.166-1.326l-.055-.608q0-.884-.055-3.315t-.055-5.138q0-2.707.055-5.138t.055-3.425a21.6,21.6,0,0,0,.221-3.26,11.763,11.763,0,0,1,.331-3.039q-.111-.221.387-.718t.5-.608a14.6,14.6,0,0,0,.055-2.155,14.143,14.143,0,0,1,0-1.768,5.123,5.123,0,0,1,.442-1.713,6.4,6.4,0,0,1,1.381-1.878v-.11q0-.11.055-.111t.055-.11l.442.221q.221,0,.5.387t.5.276a2.37,2.37,0,0,0,.994.055,2.029,2.029,0,0,0,.884-.166l1.657,3.2a1.818,1.818,0,0,0,.552.11.848.848,0,0,0,.331.11.318.318,0,0,1,.221.11l.111.111a.318.318,0,0,0,.11.221l-.11.11a4.73,4.73,0,0,1-.055.5,4.567,4.567,0,0,0-.055.608,3.551,3.551,0,0,1,1.6-.331,5.555,5.555,0,0,1,1.768.276,4.113,4.113,0,0,1,1.492.884,2.459,2.459,0,0,1,.773,1.6,1.257,1.257,0,0,1-.608,1.215,16.165,16.165,0,0,1-1.657,1.1q-.939.552-1.768,1.1t-.939.994a.838.838,0,0,0,.166,1.1,5.486,5.486,0,0,0,1.326.829,15.27,15.27,0,0,1,1.547.829,1.286,1.286,0,0,1,.718,1.1.986.986,0,0,1-.5.939,3.605,3.605,0,0,1-1.05.387q-.552.11-1.215.276a1.484,1.484,0,0,0-.994.829,1.227,1.227,0,0,0,.166,1.16,13.2,13.2,0,0,0,.829,1.16q.442.552.773,1.05a.983.983,0,0,1,.221.829,1.211,1.211,0,0,1-.663.829,8.138,8.138,0,0,1-.884.276,1.639,1.639,0,0,0-.773.442,1.451,1.451,0,0,0-.221,1.215,1.684,1.684,0,0,0,.387,1.05,1.155,1.155,0,0,0,.939.5q.773-.11.552-.5t.221-1.271h.221l.221-.11q.111,0,.221.221a.848.848,0,0,1,.111.331,2.97,2.97,0,0,1-.166,1.713,2.832,2.832,0,0,1-.663.663,2.49,2.49,0,0,0-.663.718,2.876,2.876,0,0,0-.055,1.768,3.761,3.761,0,0,1,1.326,0q.331.11.884-.442v.11a5.294,5.294,0,0,1-.221,2.652,4.94,4.94,0,0,0-.221,2.541,2.849,2.849,0,0,0,.442,1.492,4.135,4.135,0,0,0,1.657.829,5.252,5.252,0,0,1,2.1-.718q1.215-.166,2.376-.442a8.849,8.849,0,0,0,2.1-.773,2.554,2.554,0,0,0,1.271-1.6q.221.11.608.331a1.36,1.36,0,0,0,.608.221h.111a2.873,2.873,0,0,0,1.271-.387,2.407,2.407,0,0,1,.939-.387l.442.11a.49.49,0,0,1,.221.055.77.77,0,0,0,.332.055.981.981,0,0,0,.442.11q.11,0,.055-.166t1.492-.387a2.086,2.086,0,0,1-.663.11h-.663l.111-.11a.991.991,0,0,1,.5.166.961.961,0,0,0,.387.166q.111-.221.387-.994t.387-.994a1.613,1.613,0,0,0,.718-.331,1.988,1.988,0,0,1,.608-.331,5.205,5.205,0,0,0,.276-.829,4.789,4.789,0,0,0,.166-.718h.221q1.1,0,1.1.773a.225.225,0,0,1-.055.166.225.225,0,0,0-.055.166v.331a6.123,6.123,0,0,0-.5.718q-.387.608-.276.829,0,.221.055.718t.11,1.16a10.789,10.789,0,0,0,.166,1.215,7.639,7.639,0,0,0,.221.884,1.184,1.184,0,0,1-.718.829,10.015,10.015,0,0,1-.994.276,2.438,2.438,0,0,0-.829.331q-.331.221-.221.884a.691.691,0,0,0,.884.663.1.1,0,0,0,.111-.11,11.068,11.068,0,0,0,1.6-.884q1.05-.663,1.381-.884l.331.552q-.221.331-.884,1.381t-1.436,2.21q-.773,1.16-1.492,2.1t-1.05.939a2.086,2.086,0,0,1-.663.11q-.663,0-.663-.331a3.322,3.322,0,0,1,.111-.552,3.022,3.022,0,0,0,.111-.663v-.221a.49.49,0,0,0-.055-.221.769.769,0,0,1-.055-.331,1.918,1.918,0,0,0-.387-1.1,2.315,2.315,0,0,0-.829-.773l-1.326,1.657,1.215.884a1.153,1.153,0,0,1-.773.829,2.742,2.742,0,0,0-1.1.829A8.689,8.689,0,0,0,291.657.5a9.487,9.487,0,0,1-.331,1.16,1.362,1.362,0,0,1-.718.718,5.975,5.975,0,0,1-1.989.387,7.194,7.194,0,0,1-1.878.166A10.811,10.811,0,0,1,284.53,2.431ZM287.845.994q0-.221-.276-.221t-.276.221Q287.845,1.547,287.845.994Zm-3.757-2.652q-.221,0-.221.331t.221.221Q284.309-1.326,284.088-1.657Zm6.3-3.425a3.68,3.68,0,0,0-1.657.552,1.625,1.625,0,0,0-.773,1.05,1.329,1.329,0,0,0,.387,1.16,3.532,3.532,0,0,0,1.713.884q.11,0,.276-.608a7.113,7.113,0,0,0,.221-1.326,7.289,7.289,0,0,0,0-1.271Q290.5-5.193,290.387-5.083Zm-5.746-2.652V-8.4l-.552.221ZM300.331-17.9q.221-.11.276.055a.25.25,0,0,1-.055.276q-.221.221-.331-.055T300.331-17.9ZM278.453-43.425q.332,0,.387.5t-.276.5q-.442,0-.5-.5T278.453-43.425ZM274.7-54.365a2.154,2.154,0,0,0-.608.276,2.154,2.154,0,0,1-.608.276h-.332a.365.365,0,0,1-.387,0q-.166-.11-.166-.221a25.877,25.877,0,0,1-2.155-4.53,19.405,19.405,0,0,1-1.16-4.641,5.515,5.515,0,0,1,.442-1.271,23,23,0,0,1,1.05-2.155,21.553,21.553,0,0,1,1.271-2.044q.663-.939.994-.939.11,0,.994.166t1.934.387q1.05.221,2.1.387a11.411,11.411,0,0,0,1.381.166l.442.442.442.442a3.621,3.621,0,0,0,.442.552q.221-.552.608-.608a4.236,4.236,0,0,0,.939-.276.8.8,0,0,1,.663.276,2.856,2.856,0,0,1,.387.663,5.54,5.54,0,0,0,.331.663.649.649,0,0,0,.608.276q.111-.11.442-.387a1.059,1.059,0,0,1,.442-.276.318.318,0,0,0,.221-.11.225.225,0,0,0,.166-.055.225.225,0,0,1,.166-.055,3.715,3.715,0,0,1-.221,2.32l.884-.11q0,.221-.111,1.16t-.11,1.271a7.359,7.359,0,0,0,.552,1.1,5.5,5.5,0,0,0,.663.994,7.309,7.309,0,0,0-.331.994,16.619,16.619,0,0,1-.552,1.6,10.1,10.1,0,0,1-.773,1.547,1.225,1.225,0,0,1-.994.718,4.728,4.728,0,0,1-.5-.055,4.569,4.569,0,0,0-.608-.055,3.617,3.617,0,0,1-.884-.221,1.818,1.818,0,0,0-.552-.11,5.781,5.781,0,0,0-1.271.718l-.994.773a5.5,5.5,0,0,1-1.1.663,5.369,5.369,0,0,1-1.6.387q-.994.221-1.326-.5A1.056,1.056,0,0,0,274.7-54.365Zm9.282-9.171q.221-.221-.111-.221t-.221.221q0,.331.166.331T283.978-63.536ZM273.37-66.077q-.221.11-.166.552t.276.331q.331,0,.276-.442T273.37-66.077ZM321.436,5.746q1.1,0,1.1-.773a.637.637,0,0,1-.221-.442q-.442.331-.994.773t-.884.663a.45.45,0,0,1-.332.11h-.331V4.751a.318.318,0,0,1-.221-.11.318.318,0,0,1-.221-.11q0,.11-.166.221a1.809,1.809,0,0,0-.276.221q-.111,0-.221.331t-.221.331a.981.981,0,0,1-.442-.11.225.225,0,0,1-.166-.055.225.225,0,0,0-.166-.055.318.318,0,0,1-.221-.11q-.111,0-.552-.055t-.552-.055a2.874,2.874,0,0,1,.111-.884,2.086,2.086,0,0,0,.11-.663,2.213,2.213,0,0,0-1.215.663q-.773.663-1.1.994a2.849,2.849,0,0,0-.331-2.376,8.77,8.77,0,0,0-1.6-1.713q-.939-.773-1.768-1.381a1.654,1.654,0,0,1-.829-1.271,2.816,2.816,0,0,1,.166-.994,2.816,2.816,0,0,0,.166-.994q-.773,0-.663.387t-.442,1.05h-.111q-.11,0-.387-1.271T307.9-6.022q-.276-1.492-.5-2.818t-.221-1.436v-.884q0-.442.552-.442h.221a1.2,1.2,0,0,1,.166.608q.055.5.166.5h.221l3.094-2.652q1.215-.994,2.265-1.823a3.458,3.458,0,0,1,1.381-.829v2.32a2.868,2.868,0,0,0,1.381-.276,4.229,4.229,0,0,0,1.16-1.16q.111.11.994,1.215a3.39,3.39,0,0,1,.884,1.547.5.5,0,0,1-.166.442.5.5,0,0,0-.166.442,3.233,3.233,0,0,0,.11,1.1q.111.221.663.221a2.531,2.531,0,0,1,.332-1.326,2.765,2.765,0,0,0,.331-1.436q0-1.1-.608-1.381a1.593,1.593,0,0,1-.829-1.16.848.848,0,0,1,.11-.331q.332-.331.221-.331,0-.442.331-.442a1.36,1.36,0,0,1,.608.221,2.886,2.886,0,0,1,.608.442,1.334,1.334,0,0,1-.166.442,1.334,1.334,0,0,0-.166.442,2.134,2.134,0,0,1,1.934.939,5.873,5.873,0,0,1,.829,2.21,20,20,0,0,1,.276,2.6q.055,1.326.166,2.21a2.366,2.366,0,0,0,.166.552,2.366,2.366,0,0,1,.166.552v.221a2.816,2.816,0,0,1-.166.994,3.174,3.174,0,0,0-.166,1.1,3.325,3.325,0,0,0,.387,1.6A3.821,3.821,0,0,1,324.862,0q0,.221-.055.718a.527.527,0,0,1-.608.5h-.111q-.221-.11-.608-.331a1.2,1.2,0,0,1-.5-.442.909.909,0,0,1-.055.276.909.909,0,0,0-.055.276q0,.552.773.994t.773.994a2.366,2.366,0,0,1-.166.552,2.117,2.117,0,0,0-.166.663q0,.221.276.331a1.357,1.357,0,0,0,.5.11.478.478,0,0,1-.221.387.717.717,0,0,0-.221.608q0,.552.442.608t.442.276q-.221,0-1.05.11t-.608.773a1.592,1.592,0,0,0-1.271-.663A.922.922,0,0,1,321.436,5.746Zm1.878-2.983q-.221,0-.221.331t.221.331q.221,0,.221-.331T323.315,2.762Zm0-4.42q-.221,0-.221.331t.221.331q.221,0,.221-.331T323.315-1.657ZM318.9-5.3q-.111-.11-.111.11t.111.221q.221-.11.221-.221T318.9-5.3Zm2.32-2.652q-.221,0-.221.5t.221.276a.4.4,0,0,0,.221-.387A.4.4,0,0,0,321.215-7.956Zm-.773-1.436q-.552.331-.552.663h.552Zm1.215-1.1q0,.331.663.773V-10.5Zm.221-1.1a.2.2,0,0,0-.221.221q0,.221.221.11t.221-.221Q322.1-11.6,321.878-11.6Zm-10.276,0,.331-.331H311.6Zm5.856-.331h.442q0-.221-.055-.718a.932.932,0,0,0-.387-.718Zm-4.42-.773a.791.791,0,0,0,.773.442.547.547,0,0,0,.608-.552q.055-.552.055-1.1a.937.937,0,0,0-.773.5A2.546,2.546,0,0,1,313.039-12.707Zm2.983-4.862a3.673,3.673,0,0,0,.221-.884,6.779,6.779,0,0,0,.111-.884h.111a2.088,2.088,0,0,1,.829.387q.608.387.608.608t-.5.5a1.592,1.592,0,0,0-.718.829v.221a1.2,1.2,0,0,1,.221.442,1.2,1.2,0,0,0,.221.442h-.442a.512.512,0,0,1-.552-.387,2.625,2.625,0,0,1-.111-.718ZM366.3,1.878a4.263,4.263,0,0,1-.221-1.05,4.261,4.261,0,0,0-.221-1.05.606.606,0,0,0-.552-.5,7.454,7.454,0,0,1-.884-.166,3.782,3.782,0,0,1-.773-.276q-.331-.166-.221-.718a11.32,11.32,0,0,1-1.215,1.05q-.663.5-1.215.939V-1.326a1.2,1.2,0,0,0-.939.442,3.437,3.437,0,0,0-.608.994q-.221.552-.387.994t-.276.442q-.663,0-.663-.994a2.253,2.253,0,0,1,.387-1.326A2.452,2.452,0,0,0,358.9-2.21q0-1.768-1.436-1.768a.318.318,0,0,0-.221.11q-.111,0-.387.331t-.387.442q-.221,0-1.271-.055a3.626,3.626,0,0,0-1.271.055q-.111,0-.387.387a4.8,4.8,0,0,1-.387.5l-1.547.773-.552-.773h-.332a1.224,1.224,0,0,1-.387-.055.909.909,0,0,0-.276-.055,2.937,2.937,0,0,0-1.326.276,2.937,2.937,0,0,1-1.326.276.877.877,0,0,1-.718-.221q-.166-.221-.829-.221h-.442a3.085,3.085,0,0,0-.718.718,5.923,5.923,0,0,0-.608.829,1.814,1.814,0,0,1-.276-.552,2.117,2.117,0,0,1-.166-.663,4.313,4.313,0,0,0,.442-.773,2.668,2.668,0,0,0,.331-.884l.111-.331q0-.884-.663-.884a.527.527,0,0,0-.608.5,8.524,8.524,0,0,0-.055.939q-.773,0-.608-.994t-.055-1.215a.845.845,0,0,0-.442-.166q-.331-.055-.718-.11a1.76,1.76,0,0,1-.663-.221.649.649,0,0,1-.276-.608,2.381,2.381,0,0,1,.166-.939,2.081,2.081,0,0,0,.166-.829V-8.95q0-.11-.332-.221a1.808,1.808,0,0,0-.442-.11q-.773,0-.994.276a1.957,1.957,0,0,0-.331.608,3.054,3.054,0,0,1-.276.608q-.166.276-.829.276V-8.4a1.139,1.139,0,0,0-.221-.442,1.139,1.139,0,0,1-.221-.442,1.273,1.273,0,0,1,.442-.884l.332-.331a1.154,1.154,0,0,0,0-.718,3.781,3.781,0,0,1-.111-.718,1.3,1.3,0,0,0-.552.166,1.3,1.3,0,0,1-.552.166,1.617,1.617,0,0,0-.331-.552q-.332-.442-.442-.442h-.884a1.86,1.86,0,0,0-.276.442.609.609,0,0,0-.055.552q.111.552.442.663a2.258,2.258,0,0,0,.718.11,2.622,2.622,0,0,1,.608.055q.221.055.221.608h-2.762a3.921,3.921,0,0,0-.332-1.823,2.86,2.86,0,0,0-.773-.939q-.442-.331-.773-.608a1.017,1.017,0,0,1-.332-.829v-.221a.318.318,0,0,0,.221-.11q.221-.221.331-.221v-.331a.782.782,0,0,0-.5-.773.782.782,0,0,1-.5-.773,1.224,1.224,0,0,1,.055-.387.909.909,0,0,0,.055-.276.961.961,0,0,1,.166-.387.961.961,0,0,0,.166-.387q0-.221-.552-.5t-.552-.5a.1.1,0,0,1-.11-.11v-.221a1.062,1.062,0,0,1,.552-1.05,4.284,4.284,0,0,1,1.271-.387q.718-.11,1.436-.276a1.219,1.219,0,0,0,.939-.718.783.783,0,0,0-.773-.552.225.225,0,0,0-.166.055.225.225,0,0,1-.166.055h-.11a1.906,1.906,0,0,0-.608.387,1.906,1.906,0,0,1-.608.387h-.552l-.331-.331a1.808,1.808,0,0,0-.442.11q-.332.11-.332.221a.752.752,0,0,1-.11-.5v-.5a2.642,2.642,0,0,1,.442-1.381,9.116,9.116,0,0,1,1.05-1.381q.608-.663,1.05-1.215a1.621,1.621,0,0,0,.442-.884,2.468,2.468,0,0,0-.442-1.492,2.289,2.289,0,0,1-.442-1.381,2.219,2.219,0,0,1,.718-1.6,3.551,3.551,0,0,0,.939-1.934V-35.58q.111-.331.331-.331a1.357,1.357,0,0,0,.5-.11.86.86,0,0,0,.442-.442,3.038,3.038,0,0,0,.166-1.215h.773v2.1q.221-.221.718-.663t.718-.442l.442.11a5.78,5.78,0,0,1,.939.331q.5.221.939.442a1.938,1.938,0,0,0,.552.221.318.318,0,0,0,.221-.111l.111-.11a.318.318,0,0,0,.111-.221q-.442-.331-1.271-1.05a2.493,2.493,0,0,0-1.6-.718v-1.436q.221.11.5.221a1.186,1.186,0,0,1,.387.221h.442a1.334,1.334,0,0,1,.166-.442,1.334,1.334,0,0,0,.166-.442h.442a3.842,3.842,0,0,0,.276,1.381,2.275,2.275,0,0,0,1.05,1.16,1.267,1.267,0,0,0,.387-.11,1.267,1.267,0,0,1,.387-.111v-3.646a9.006,9.006,0,0,1-1.436-.829q-1.1-.718-1.1-.939v-.221a11.769,11.769,0,0,1,1.05-1.768,2.3,2.3,0,0,1,1.934-.663h.663a.7.7,0,0,1,.331.387,1.267,1.267,0,0,1,.111.387,2.181,2.181,0,0,0,.608-.829q.387-.718.829-1.547a12.257,12.257,0,0,1,.884-1.436q.442-.608.773-.608,0,.11-.055,1.05t-.111,1.989q-.055,1.05-.11,1.989t-.055,1.05q0,.221-.5-.055a2.154,2.154,0,0,0-.608-.276,2.572,2.572,0,0,0-.442.663,2.556,2.556,0,0,1-.331.552q-.221.221,0,.331a.318.318,0,0,0,.111.221h2.32a.671.671,0,0,1-.166.331q-.166.221-.276.221-.221.221.111.387t-.111.166l1.436.331v-3.315h1.436l1.1.663a3.988,3.988,0,0,1,.773.5q.331.276.331.166-.11-.11-.442-.5t-.718-.884q-.387-.5-.718-.884t-.442-.387q.111-.442.442-.221t.608.387a.369.369,0,0,0,.5-.055,2.609,2.609,0,0,0,.221-1.436,2.937,2.937,0,0,0-.276-1.326,3.847,3.847,0,0,1-.276-1.657q0-.11.718.166t.718.166a1.186,1.186,0,0,0,.387.221,1.185,1.185,0,0,1,.387.221h.332a.555.555,0,0,0,.276-.442q.055-.331.166-.331.11-.11.939-.829a3.725,3.725,0,0,1,1.271-.829,3.944,3.944,0,0,0,.994-.331,5.736,5.736,0,0,0,.718-.221,1.267,1.267,0,0,1,.387-.111,1.808,1.808,0,0,1,.442.111,3.636,3.636,0,0,0,1.1.221,8.1,8.1,0,0,0,1.547.331q.11,0-.111.276t-.5.608q-.276.331-.5.552t-.111.221a2.289,2.289,0,0,0,1.381-.442,4.246,4.246,0,0,0,.994-.994,11.688,11.688,0,0,1,.773-.994,1.2,1.2,0,0,1,.939-.442,1.078,1.078,0,0,1,.718.387q.387.387.829.884a10.006,10.006,0,0,0,.884.884,1.269,1.269,0,0,0,.773.387.318.318,0,0,0,.221-.11q.11-.221.276-.663a2.117,2.117,0,0,0,.166-.663.261.261,0,0,0-.221-.276q-.221-.055-.5-.11a1.215,1.215,0,0,1-.5-.221.877.877,0,0,1-.221-.718q0-.331.5-.331a4.572,4.572,0,0,1,.994.11,3.38,3.38,0,0,1,.718.221q.221.11-.331-.11l2.32,2.32q.111.221.387,0a1.387,1.387,0,0,0,.387-.442,3.427,3.427,0,0,0,.221-.663,3.322,3.322,0,0,0,.111-.552h.552a4.261,4.261,0,0,0,1.05.221,4.26,4.26,0,0,1,1.05.221q0,.221.111,1.215a5.013,5.013,0,0,0,.221,1.215q0,.11.166.221a1.81,1.81,0,0,1,.276.221,2.139,2.139,0,0,0,.276-.387.961.961,0,0,0,.166-.387v-4.2l.331.442,1.326,5.746,2.431-1.989.11-.221q0-.552-.773-.552a.949.949,0,0,1-.994-.552q.111-.552.939-.5t.939.055h.994a3.348,3.348,0,0,1,.387.718,6.321,6.321,0,0,1,.387,1.05v.111a1.684,1.684,0,0,1-.387,1.05,4.411,4.411,0,0,1-.829.829q.442-.331.663-.166a1.375,1.375,0,0,1,.387.5,5.063,5.063,0,0,1,.276.663q.111.331.331.331a1.8,1.8,0,0,0,.5-.166q.387-.166.387-.276-.221.221-.055.387a2.732,2.732,0,0,0,.552.387q.387.221.718.387a.934.934,0,0,1,.442.387,7.492,7.492,0,0,0,.166,1.05,7.493,7.493,0,0,1,.166,1.05v3.315q0,.552.276.663t.608.221l.663.221a1.065,1.065,0,0,1,.552.442.452.452,0,0,1-.166.276l-.276.276h-.331q-.552-.221-1.768-.829t-1.547-.829a.668.668,0,0,0-.608.608,7.745,7.745,0,0,0-.055.829,3.726,3.726,0,0,1-1.657-.442,5.475,5.475,0,0,1-1.436-.994q.552-.221.552-.663v-.663a2.56,2.56,0,0,0-.055-.5,2.327,2.327,0,0,1-.055-.387q0-.11-.552-.5a6.287,6.287,0,0,1-.773-.608h-.111a1.943,1.943,0,0,0-1.436.552q-.552.552-1.215,1.1l-.221.11a.318.318,0,0,1-.221-.11,4.8,4.8,0,0,1-.387-.5q-.276-.387-.387-.387a2.6,2.6,0,0,0-1.05-.055q-.829.055-1.05.055l-.442-.442q-.332-.331-.442-.331h-.111a.911.911,0,0,0-.663.387q-.331.387-.718.884l-.773.994a1.559,1.559,0,0,1-.939.608,6.442,6.442,0,0,0-.994.166q-.773.166-1.713.276t-1.713.221a9.457,9.457,0,0,1-.994.11,4.618,4.618,0,0,0-.773.221,4.618,4.618,0,0,1-.773.221h-2.873a1.433,1.433,0,0,1-.5.718,1.644,1.644,0,0,1-.829.166q-.884,0-.884-.663t-.884-.663a1.078,1.078,0,0,0-.773.221,1.078,1.078,0,0,1-.773.221.86.86,0,0,1-.773-.331.86.86,0,0,0-.773-.331,3.847,3.847,0,0,0,.276,1.657q.276.552.829,1.436a.866.866,0,0,1,.166.221.866.866,0,0,0,.166.221.848.848,0,0,1,.111.331,1.106,1.106,0,0,1-.387.884,2.546,2.546,0,0,1-.939.5q-.552.166-1.05.276a3.954,3.954,0,0,1-.829.11l-.111.331a1.159,1.159,0,0,0,.166.608q.166.276.829.166a10.343,10.343,0,0,1-1.05,1.878,4.452,4.452,0,0,0-.718,1.878v2.431a5.358,5.358,0,0,1-.221,1.16q-.221.829-.387,1.713a9.619,9.619,0,0,1-.387,1.492l-.221.608-2.873-2.1q-.11-.11-.221.11a.848.848,0,0,0-.111.331,3.851,3.851,0,0,0,.166.663,3.851,3.851,0,0,1,.166.663v.442a4.789,4.789,0,0,1-.166.718,4.789,4.789,0,0,0-.166.718,1.923,1.923,0,0,0,.331.773q.332.552.442.552v.221a.1.1,0,0,1-.111.11A2.531,2.531,0,0,0,347.4-17.9a2.764,2.764,0,0,1,1.436-.331h.663l-.773,1.989h.773v2.21q1.215,0,1.1.11a3.683,3.683,0,0,0-.11,1.326h.552q.221,0,.994.829t1.1,1.271a3.375,3.375,0,0,1,.387.663q.276.552.387.552a2.6,2.6,0,0,0,1.05.055q.829-.055,1.05-.055.111,0,.608.442t.608.442q.111.11.829.055T358.9-8.4a5.564,5.564,0,0,0,1.1.276q.884.166.994.166h1.657q1.215,0,2.541.055t2.541.055h1.657v1.436a1.124,1.124,0,0,0,.939-1.1,1.789,1.789,0,0,1,.939-1.436,12.106,12.106,0,0,1,3.646-1.1,23.079,23.079,0,0,0,3.646-.773q.221-.11.939-.442a4.148,4.148,0,0,1,.829-.331h.221a.225.225,0,0,0,.166-.055.225.225,0,0,1,.166-.055.1.1,0,0,0,.111.11h.552a1.286,1.286,0,0,0,.331.221.981.981,0,0,0,.442.11h1.657a8.658,8.658,0,0,1,1.381.552q.939.442,1.16.552a3.122,3.122,0,0,1,.5,1.1,5.478,5.478,0,0,1,.276,1.1h.552a.318.318,0,0,0-.111.221.1.1,0,0,1-.11.11q0,.11-.332.387t-.442.387a3.391,3.391,0,0,0,.055.442q.055.331-.055.442a1.745,1.745,0,0,1-.829.884,2.428,2.428,0,0,1-1.16.331l-.11-.11a.318.318,0,0,1,.11-.221q.111-.11.552-.663a2.659,2.659,0,0,1,.663-.663v-.442q0-.663-.884-1.1a1.006,1.006,0,0,0-.552.718,8.543,8.543,0,0,1-.221.829,9.731,9.731,0,0,1-1.657.221,9.731,9.731,0,0,0-1.657.221,1.7,1.7,0,0,0-.663.221,1.938,1.938,0,0,1-.552.221v.773a4.109,4.109,0,0,0,.11.994.991.991,0,0,0,.663.663,1.334,1.334,0,0,0-.829.055,1.924,1.924,0,0,0-.829.387q-.111,0,0,.718t0,.829a1.386,1.386,0,0,1-.994.773q-.773.221-.773,1.436h-.111a6.982,6.982,0,0,0-.166-1.16,5.387,5.387,0,0,0-.276-1.05,1.2,1.2,0,0,1-.884-.331.909.909,0,0,0-.276.055.909.909,0,0,1-.276.055l.111.221a3.529,3.529,0,0,0-.221.829,3.531,3.531,0,0,1-.221.829h-.332a5.445,5.445,0,0,1-.829.5,2.816,2.816,0,0,1-.939.387q-.111.11-.552.055a5.862,5.862,0,0,0-.663-.055,4.59,4.59,0,0,1-.995.442,4.734,4.734,0,0,1-1.1.331.318.318,0,0,1-.221.11h-.221a3.3,3.3,0,0,1-1.381-.276A2.443,2.443,0,0,0,366.3,1.878Zm.884-.773A4.163,4.163,0,0,0,368.84.773,4.163,4.163,0,0,1,370.5.442a4.325,4.325,0,0,0-.111-.608q-.111-.5-.276-1.05a8.827,8.827,0,0,0-.387-1.05q-.221-.5-.331-.5l-.221.11-.221.442a.848.848,0,0,0-.111.331,1.811,1.811,0,0,0-.221.276q-.11.166-.221.166a3.646,3.646,0,0,1-.608.221,2.371,2.371,0,0,1-.608.11Zm5.635-1.768q-.111-.11-.111.442t.111.331a.4.4,0,0,0,.221-.387A.4.4,0,0,0,372.818-.663ZM379.006-8.4q-.111,0-.331.608a4.531,4.531,0,0,1-.442.939,2.56,2.56,0,0,1-.055.5,2.328,2.328,0,0,0-.055.387q.884,0,.773-.5a2.186,2.186,0,0,1,.111-1.16l.442-.331a.49.49,0,0,1,.055-.221.49.49,0,0,0,.055-.221ZM344.088-7.182q-.111,0-.221.166t-.221.166v.442a1.809,1.809,0,0,1,.276-.221q.166-.11.166-.221v-.331Zm39.558-2.983q-.332,0-.332.442t.332.442q.221,0,.221-.442T383.646-10.166Zm-43.2-.663a.293.293,0,0,0-.331.331.293.293,0,0,0,.331.331q.221,0,.221-.331T340.442-10.829Zm-1.657-5.083q.11-.11-.166-.11t-.276.11a.2.2,0,0,0,.221.221A.2.2,0,0,0,338.785-15.912Zm-1.657-3.315q-.663,0-.773.442h.331a1.273,1.273,0,0,0,.884-.442Zm-4.862-1.1q-.442,0-.442.387t.442.387q.331,0,.331-.387T332.265-20.331Zm2.431.11a.791.791,0,0,0,.773-.442H334.7Zm5.746-2.983a1.712,1.712,0,0,0-1.16.608,1.712,1.712,0,0,0-.608,1.16,7.658,7.658,0,0,0,1.547-.221q.994-.221.994-.994v-.221A1.06,1.06,0,0,0,340.442-23.2Zm-8.177-.773q-.221-.11-.221.166t.221.166q.221,0,.221-.166T332.265-23.978ZM343.2-28.84a1.511,1.511,0,0,0,.055.331,1.511,1.511,0,0,1,.055.331q0,.11.332.442l.442.442a3.391,3.391,0,0,1,.387.773,1.591,1.591,0,0,0,.5.773,1.2,1.2,0,0,0,.442.221q.331.11.331.221.111,0,.276.387a1.8,1.8,0,0,1,.166.5,1.234,1.234,0,0,0,.939-.608,2.13,2.13,0,0,0,.276-1.05,9.027,9.027,0,0,0-.387-2.376,1.661,1.661,0,0,0-1.713-1.381,8.751,8.751,0,0,0-1.436.11A.772.772,0,0,0,343.2-28.84Zm-1.989,2.762h.552v-.442h-.552Zm-1.989-.884q.111,0,.276-.276a.991.991,0,0,0,.166-.5.391.391,0,0,0-.442-.442Zm1.989-1.215q-.332,0-.332.442t.332.442a.391.391,0,0,0,.442-.442A.391.391,0,0,0,341.215-28.177Zm5.635-3.757a3.022,3.022,0,0,0,.111.663,1.073,1.073,0,0,0,.442.663,1.326,1.326,0,0,0,.5-.663,2.117,2.117,0,0,0,.166-.663Zm-9.282.442h.332v-.773h-.332Zm5.414-1.215a2.117,2.117,0,0,1-.166.663,1.814,1.814,0,0,1-.276.552h.442q0-.11.166-.221t.166-.221q0-.221.055-.994t.055-.994a2.086,2.086,0,0,0-.663.111.51.51,0,0,0-.332.552l.111.221Zm-5.635-2.762a3.828,3.828,0,0,0,.166,1.1.765.765,0,0,0,.829.552,3.472,3.472,0,0,0,.552-.055q.332-.055.332-.5a.851.851,0,0,0-.663-.939A5.044,5.044,0,0,0,337.348-35.47Zm5.967-.11q-.11-.221-.331.055t0,.276q.111.221.276.055A.306.306,0,0,0,343.315-35.58Zm2.431-3.2-.331.331h1.215a.318.318,0,0,1-.221-.11l-.221-.221-.221-.11Zm16.8,0v-.442h-.331Zm19.006-.884a.2.2,0,0,0-.221-.221.2.2,0,0,0-.221.221q.111.221.276.221T381.547-39.669ZM364.309-40a1.164,1.164,0,0,0,.442-.994h-.442Zm-3.315-.442.442-.552h-.442Zm-2.1-6.188a.961.961,0,0,1-.166.387.991.991,0,0,0-.166.5q-.111.552-.276,2.376t-.166,2.376h.442q.442-.994.829-1.878a5.211,5.211,0,0,0,.387-2.1,8.076,8.076,0,0,0-.055-.994Q359.669-46.409,358.9-46.63Zm9.5,3.646a2.118,2.118,0,0,0,.221,1.05q.221.387.552.939a.293.293,0,0,0,.332-.331,4.3,4.3,0,0,0,.166-1.215q.055-.994.055-1.326a2.5,2.5,0,0,0-.884.166A.685.685,0,0,0,368.4-42.983Zm-.773,1.215q-.332,0-.332.387t.332.387q.331,0,.331-.387T367.624-41.768Zm-7.514-.773q0,.11.166.221a1.811,1.811,0,0,1,.276.221h.442a3.379,3.379,0,0,0,.221-.718q.111-.5.221-.5a3.583,3.583,0,0,1,.994-.552q.773-.331.994-.442v-.331l-.608-.608a2.742,2.742,0,0,0-.608-.5,4.476,4.476,0,0,1-1.215,1.547A2.211,2.211,0,0,0,360.111-42.541Zm21.1-.884q-.884,0-.884,1.1v.221A1.575,1.575,0,0,0,381.215-43.425Zm-19.006.442q-.332,0-.332.442t.332.442q.221,0,.221-.442T362.21-42.983ZM342.1-43.315h.442v-.552Zm12.376-.331q.884,0,.884-.994h-.884Zm15.47-5.083a1.2,1.2,0,0,0-.221.442,1.2,1.2,0,0,1-.221.442.723.723,0,0,0-.332.331q-.221.221-.221.331l-.111.11a10.657,10.657,0,0,0-.276,1.271,9.916,9.916,0,0,0-.166,1.16h.442l.111-.11q0-.11.221-.331a.723.723,0,0,1,.332-.331,3.846,3.846,0,0,1,.939-.221q.718-.11.829-.11a3.425,3.425,0,0,1,.663-.221,1.36,1.36,0,0,0,.552-.221,13.033,13.033,0,0,1-1.1-1.271,13.719,13.719,0,0,1-.884-1.271h-.552Zm-9.834.994a2.522,2.522,0,0,0,.884,1.989,2.368,2.368,0,0,0,.773-1.326l1.657.884q.331,0,.331-.442a3.292,3.292,0,0,0-.331-1.381q-.331-.718-.884-.718-.773,0-1.6.055A.816.816,0,0,0,360.111-47.735Zm4.751.442a.318.318,0,0,0-.11.221.1.1,0,0,0-.111.11v.221l.111.111.331-.442.111-.221a.318.318,0,0,0-.111-.221Zm-8.4-.221q0,.442.332.442a1.3,1.3,0,0,0,.552-.166,1.859,1.859,0,0,0,.442-.276Zm11.16-.331q-.442.11-.442.773h.442Zm5.193.773h.442l-.442-.442Zm7.514-.773q-.331,0-.331.387t.331.387q.221,0,.221-.387T380.331-47.845Zm-15.249-1.215q.111-.221-.166-.221t-.166.221q0,.221.166.221T365.083-49.061Zm8.177-.884h.552v-.884ZM417.79-.884q-.221,0-.829.055t-.829.055q0,.11-.221.331t-.331.221h-2.431l-.442.994a2.075,2.075,0,0,0-1.713-2.21,12.334,12.334,0,0,0-3.039-.442,5.867,5.867,0,0,0-.829.055,1.554,1.554,0,0,0-.829.5V-4.641l-.221-.221q-.221-.221-.221-.331a2.152,2.152,0,0,1-.773-.276l-1.215-.608q-.663-.331-1.215-.663a4.7,4.7,0,0,1-.663-.442,1.172,1.172,0,0,1-.773-1.16,1.391,1.391,0,0,0-.773-1.271q-.552.11-.552.552a5.121,5.121,0,0,0,.111.994,3.121,3.121,0,0,1,.055.994q-.055.442-.608.442a6.736,6.736,0,0,1-1.436-.331q-1.1-.331-1.1-.884v-.221a.989.989,0,0,1,.663-.552,8.293,8.293,0,0,0-.718-.608,1.485,1.485,0,0,0-.829-.387q-.663,0-.829.331a2.341,2.341,0,0,0-.221.663,4.363,4.363,0,0,1-.166.663.433.433,0,0,1-.442.331,2.318,2.318,0,0,1-.939-.221,1.354,1.354,0,0,1-.718-.773.615.615,0,0,0,.552-.663v-.773a3.529,3.529,0,0,0-.884-2.431l-1.768-1.989a.1.1,0,0,1-.111-.11.45.45,0,0,1-.111-.331,1.642,1.642,0,0,0,1.657-1.05,11.971,11.971,0,0,0,.663-2.044v-5.746a3.986,3.986,0,0,1,.5-1.989,3.773,3.773,0,0,0,.5-1.878.225.225,0,0,0-.055-.166.225.225,0,0,1-.055-.166v-.221a2.627,2.627,0,0,0-.442-.718,2.627,2.627,0,0,1-.442-.718l-.111-.11v-.221l.111-.11a16.229,16.229,0,0,0,.884-2.265,7.639,7.639,0,0,1,1.1-2.265.318.318,0,0,1,.11-.221q0-.11.055-.111t.055-.11a4.9,4.9,0,0,0,1.989-2.1q.552-1.215,1.1-2.762.111.442.442.5a3.472,3.472,0,0,0,.552.055h.442l-1.215-2.32,5.193-1.326a2.873,2.873,0,0,1,.718-2.265,3.921,3.921,0,0,1,1.713-.829q.994-.221,2.1-.442a3.118,3.118,0,0,0,1.878-1.215h4.309v-1.547l-.552.11a1.139,1.139,0,0,1-.442-.221,3.293,3.293,0,0,1-.442-.331l.442-.442h4.862l.552-.994a8.6,8.6,0,0,0,0,2.762,17.462,17.462,0,0,0,.552,2.1q.331.994.608,1.934A8.1,8.1,0,0,1,420-42.1v.773l-3.425,2.983-.221.11a.488.488,0,0,1-.552-.552q0-.552-.884-.552-1.326,0-1.436.718a12.359,12.359,0,0,0-.111,1.823,2,2,0,0,0-1.16.276,1.923,1.923,0,0,0-.608.718q-.221.442-.5.939a2.84,2.84,0,0,1-.939.939l-1.326.331a9.611,9.611,0,0,0-.663,1.05q-.552.939-.773,1.381a1.291,1.291,0,0,1-.884.773q-.552.11-1.05.221a3.63,3.63,0,0,0-.829.276q-.331.166-.331.829a3.424,3.424,0,0,0,.276,1.326,4,4,0,0,1,.276,1.547,3.7,3.7,0,0,1-.5,2.32q-.5.552-1.492,1.547v.331a8.3,8.3,0,0,0,.276,2.541,2.725,2.725,0,0,0,.718,1.16,6.882,6.882,0,0,0,.994.718,2.951,2.951,0,0,1,.994,1.1,18.973,18.973,0,0,1,.663,2.32q.332,1.436,1.326,1.657,1.768.552,3.591,1.215t3.7,1.215a25.693,25.693,0,0,0,6.077.884q3.315.11,6.188.11a9.88,9.88,0,0,0,2.32-.221A3.3,3.3,0,0,0,431.16-10a5.082,5.082,0,0,0,.994-1.271q.442-.773.994-1.768.773,1.215.884,1.1a2.23,2.23,0,0,1,.994-.11,13.478,13.478,0,0,1,.111-1.492,11.344,11.344,0,0,1,.387-1.878,4,4,0,0,1,.884-1.6,2.07,2.07,0,0,1,1.6-.663q0,.884.442,1.05a2.816,2.816,0,0,0,.994.166,8.844,8.844,0,0,1,.111-1.823,3.356,3.356,0,0,0-.332-1.6h.221a2.422,2.422,0,0,1,1.768.552,3.76,3.76,0,0,1,.829,1.215q.276.663.5,1.215a.783.783,0,0,0,.773.552l.221-.11q.221-1.215.387-1.989a9.114,9.114,0,0,0,.166-1.878,1.56,1.56,0,0,0-.331-1.05q-.331-.387-.663-.718t-.663-.718a1.394,1.394,0,0,1-.332-.939,3.576,3.576,0,0,1,.552-1.436,3.888,3.888,0,0,0,.552-1.878,2.856,2.856,0,0,0-.552-1.878,24.314,24.314,0,0,1-1.547-2.21q-.332.221-.939-.276t-1.326-1.215q-.718-.718-1.492-1.436a3.887,3.887,0,0,0-1.547-.939q-.552-.11-2.044-.276t-3.149-.5a17.469,17.469,0,0,1-2.928-.829q-1.271-.5-1.271-1.271v-3.978q0-.221-.442-.552a6.457,6.457,0,0,1-.663-.552l-.221.221a.318.318,0,0,1-.221.111.1.1,0,0,0-.111.11,1.939,1.939,0,0,1-.221.552.784.784,0,0,0-.111.663,2.227,2.227,0,0,0,.442.663,1.7,1.7,0,0,1,.442.773,2.422,2.422,0,0,1-.331.663q-.332.552-.552.884l-.442.442a1.567,1.567,0,0,0,0-.829.765.765,0,0,0-.663-.608,3,3,0,0,1-.221.939,2.536,2.536,0,0,1-.552.939,2.757,2.757,0,0,1-1.1-1.713,14.737,14.737,0,0,1-.608-2.928q-.166-1.547-.221-2.928t-.055-1.6q1.768,0,2.155-.442a13.759,13.759,0,0,0,1.271-2.1.791.791,0,0,1,.442.773,3.3,3.3,0,0,1-.276,1.381,3.037,3.037,0,0,0-.276,1.271,1.709,1.709,0,0,0,.166.773,1.355,1.355,0,0,0,.829.552,2.275,2.275,0,0,0,1.05-1.16,3.615,3.615,0,0,1,.829-1.271l.5.829a1.066,1.066,0,0,1,.166.552,2.811,2.811,0,0,1-.055.552,4.577,4.577,0,0,0-.055.829,8.761,8.761,0,0,0,1.215-.055,17.405,17.405,0,0,1,1.878-.055,9.018,9.018,0,0,0-.166-1.657q-.166-.884-1.381-.884v-.11a3.247,3.247,0,0,0,.773-.111,3.1,3.1,0,0,0,.608-.055,2.561,2.561,0,0,1,.5-.055h.552a6.9,6.9,0,0,1,.552,1.215q.442,1.1,1.215,1.1.552,0,.718-.663a3.278,3.278,0,0,1,.387-.994l.331-.11a1.73,1.73,0,0,1,1.436.718,4.79,4.79,0,0,1,.773,1.381l1.436-1.436a2.822,2.822,0,0,1,1.215,1.6,1.707,1.707,0,0,0,1.215,1.271q.773.331,2.155.829a18.445,18.445,0,0,1,2.762,1.271,13.573,13.573,0,0,1,2.431,1.713,2.826,2.826,0,0,1,1.05,2.155v7.956h.332l3.094-2.873a6.474,6.474,0,0,1-1.271-1.6,3.889,3.889,0,0,1-.718-1.713v-.331q.111-.221.276-.5t.276-.5l.221-.11q.331,0,.608.5a11.557,11.557,0,0,1,.552,1.16,6.2,6.2,0,0,1,.387,1.271,6.9,6.9,0,0,1,.111.718.1.1,0,0,0,.11.11h.221a.615.615,0,0,0,.663-.552,5.621,5.621,0,0,0,.111-1.1h1.436a31.448,31.448,0,0,0,.939,3.7,11.018,11.018,0,0,1,.5,3.481,13.32,13.32,0,0,1-.111,1.934A4.283,4.283,0,0,1,456.3-24.2a11.492,11.492,0,0,1-.718,1.215q-.442.663-1.215,1.657a1.335,1.335,0,0,0,.939.663.693.693,0,0,1,.608.773.709.709,0,0,1-.663.773q-.663.11-1.492.276a3.313,3.313,0,0,0-1.492.718,2.483,2.483,0,0,0-.663,1.989q0,.442.276.552a2.9,2.9,0,0,0,.663.166,2.9,2.9,0,0,1,.663.166q.276.11.276.552a.318.318,0,0,1-.11.221q-1.1.331-1.6.442a4.128,4.128,0,0,1-.884.11,6.7,6.7,0,0,1-.829-.055,13.032,13.032,0,0,0-1.436-.055q0,.331.166,1.657t.166,1.768a1.36,1.36,0,0,1-.276.5,1.36,1.36,0,0,0-.276.5,1.761,1.761,0,0,0-.221.718,3.531,3.531,0,0,1-.221.829,3.441,3.441,0,0,0-.442-1.436,2.129,2.129,0,0,0-.994-1.1q-.663-.221-.829.166a2.081,2.081,0,0,0-.166.829,1.633,1.633,0,0,0,.552,1.271,1.518,1.518,0,0,1,.552,1.16,1.643,1.643,0,0,1-.442,1.215,3.8,3.8,0,0,1-.994.718,9.753,9.753,0,0,0-1.05.608,1.412,1.412,0,0,0-.608.994l-.994-1.989v3.094a.981.981,0,0,0-.442.11,1.938,1.938,0,0,1-.552.221h-.773V-5.193H440a3.343,3.343,0,0,1-.331,1.1,17.353,17.353,0,0,1-.829,1.657,10.3,10.3,0,0,1-1.05,1.547,1.508,1.508,0,0,1-1.1.663,1.062,1.062,0,0,1-1.05-.552,7.143,7.143,0,0,1-.5-1.436h-.111a2.428,2.428,0,0,0-1.436.331,3.848,3.848,0,0,0-.773.773q-.332.442-.663.939a4.2,4.2,0,0,1-.884.939h-.111q-.552,0-.663-.773t-.276-1.657a6.27,6.27,0,0,0-.552-1.657,1.507,1.507,0,0,0-1.492-.773,9.135,9.135,0,0,0,.111,1.215q.11.773.166,1.713A9.959,9.959,0,0,1,428.4.663a3.536,3.536,0,0,1-.552,1.547.391.391,0,0,1-.442-.442,3.887,3.887,0,0,1,.166-.829,5.205,5.205,0,0,1,.276-.829V-.221q-.221-.663-.552-1.823T426.74-3.2h-.331a7.927,7.927,0,0,0-1.271,1.16L423.315-.221a5.99,5.99,0,0,1-.663,1.215q-.663,1.215-.884,1.215a.766.766,0,0,1-.829-.5q-.166-.5-.331-1.05a2.342,2.342,0,0,0-.718-1.05A3.233,3.233,0,0,0,417.79-.884Zm13.923-.442q-.331,0-.331.552t.331.552q.442,0,.442-.552T431.713-1.326ZM419.006-5.083q-1.1,0-1.271.884a9.574,9.574,0,0,0-.166,1.768v.552q1.1,0,1.271-1.215A15.318,15.318,0,0,0,419.006-5.083ZM422.873-3.2a.354.354,0,0,0,.221.331.354.354,0,0,1,.221.331h.442a2.78,2.78,0,0,0,2.32-1.16,4.027,4.027,0,0,0,.884-2.486,6.856,6.856,0,0,0-2.652.608,2.247,2.247,0,0,0-1.436,2.265Zm-8.729,0,.442-.442-.442-.442-.221-.11q-.111,0-.111.055t-.11.055h-.111ZM406.3-6.63h.442l-.442-.552Zm41.1-5.3q-.221,0-.221.387t.221.387q.442,0,.442-.387T447.4-11.934Zm-1.878,0h1.547q-.221-.552-.552-.608a3.473,3.473,0,0,0-.552-.055q-.111,0-.111.055t-.111.055h-.221Zm2.762-10.608a.318.318,0,0,0,.11.221,1.285,1.285,0,0,0,.221.331q.221.221.331.221v-.552q-.11,0-.221-.221a.354.354,0,0,0-.332-.221Zm-3.757-1.215.442-.442h-.442Zm.442-3.867a1.611,1.611,0,0,0-.221.663,3.428,3.428,0,0,1-.221.773l-.111.773q.552,0,.829-.718a3.368,3.368,0,0,0,.276-1.05Q445.525-27.624,444.972-27.624Zm-.442-.994q-.442,0-.442.5t.442.5q.331,0,.331-.5T444.53-28.619Zm3.425,0q-.442,0-.442.5t.442.5q.331,0,.331-.5T447.956-28.619Zm4.862.442h.552v-.442h-.552Zm-8.84-1.436q-.332,0-.332.5t.332.5q.442,0,.442-.5T443.978-29.613Zm3.094-.442h.332V-30.5h-.332ZM394.144-31.6q-.221,0-.221.276t.221.166q.221,0,.221-.166T394.144-31.6Zm50.829-.331h.552v-.552h-.552Zm-48.4-1.878q0,1.326.994,1.326h.442a24.5,24.5,0,0,0,1.436-2.32,5.236,5.236,0,0,0,.663-2.541q-.221,0-.773.552t-1.16,1.215q-.608.663-1.1,1.215Zm49.945-2.21q-.442,0-.442.5t.442.5q.442,0,.442-.5T446.519-36.022Zm0-1.436a.391.391,0,0,0-.442.442.391.391,0,0,0,.442.442.391.391,0,0,0,.442-.442A.391.391,0,0,0,446.519-37.459Zm-23.646-2.873h.773a2.5,2.5,0,0,0-.166-.884,1.19,1.19,0,0,0-.608-.663Zm-.994-2.983a1.139,1.139,0,0,0,.221.442,3.621,3.621,0,0,0,.442.552v-1.436h-.663Zm-.331-1.1.331-.442h-.331Zm-11.713-.442h.331v-1.989h-.331Zm1.989,0h.884a1.471,1.471,0,0,0-.166-.663.531.531,0,0,0-.5-.331h-.221ZM472.044-3.646a9.793,9.793,0,0,1,.221-1.271,9.79,9.79,0,0,0,.221-1.271q0-.221-.663-.829t-.663-.829q0-.221.663-.663l.663-.442v-1.1a11.834,11.834,0,0,0-1.271-5.249,16.63,16.63,0,0,1-1.6-5.359q-.552-3.867-.884-7.459t-.331-7.569v-7.4a12.386,12.386,0,0,1,.5-2.486,4.809,4.809,0,0,1,1.16-2.044,7.216,7.216,0,0,1,1.436,1.878q.773,1.326,1.657,1.1a3.463,3.463,0,0,0,.829-.5,10.57,10.57,0,0,1,.939-.608h.773a3.343,3.343,0,0,1,1.934.5,18.778,18.778,0,0,1,1.713,1.381,14.779,14.779,0,0,1,.166,1.989q.055,1.436.166,3.039a20.864,20.864,0,0,0,.442,3.094,5.184,5.184,0,0,0,.994,2.265.318.318,0,0,0,.221.11h.552a3.781,3.781,0,0,0,.718-.11q.5-.11.5-.773a3.529,3.529,0,0,0-.994-2.265A3.637,3.637,0,0,1,481.1-38.9a1.862,1.862,0,0,1,.442-.939q.442-.608.994-1.271a7.813,7.813,0,0,1,1.1-1.1,1.7,1.7,0,0,1,.773-.442l.221.11h.111q.11,0,.276.221t.276.221h.221a.891.891,0,0,0,.884-.442,2.926,2.926,0,0,0,.276-1.05q.055-.608.055-1.215a1.687,1.687,0,0,1,.221-.939,13.375,13.375,0,0,1,1.1-.884l1.326-.994h.331q.663,0,.718.773t1.381.773a3.147,3.147,0,0,0,2.431-1.1,13.4,13.4,0,0,0,1.713-2.376q.718-1.271,1.271-2.376t1.1-1.1a3.4,3.4,0,0,1,1.6.442q.829.442,1.713.939t1.713.994a4.388,4.388,0,0,0,1.492.608,5.97,5.97,0,0,0,1.6.055q1.271-.055,1.492-.055a3.389,3.389,0,0,1,.829.663q.718.663,1.547,1.436t1.547,1.436q.718.663.829.773l.331,7.4-.331.663a19.538,19.538,0,0,1,1.768,1.768,3.255,3.255,0,0,1,.552,2.1,2.4,2.4,0,0,1-.331,1.492,3.184,3.184,0,0,0-.332,1.823,9.013,9.013,0,0,0,.332,2.486,8.605,8.605,0,0,1,.331,2.376v.552q0,.11-.331.442a1.286,1.286,0,0,0-.332.221,2.086,2.086,0,0,0,.221.718,1.218,1.218,0,0,0,.442.608,6.946,6.946,0,0,0,1.657-.5q.553-.276.552-1.271a1.075,1.075,0,0,0-.387-.939.952.952,0,0,1-.387-.829q0-.221.829-1.1t1.878-1.878q1.05-.994,1.989-1.934a11.381,11.381,0,0,0,1.16-1.271,27.223,27.223,0,0,1,1.713-2.155Q525.3-36.464,526.8-37.9a30.443,30.443,0,0,1,2.983-2.541,4.562,4.562,0,0,1,2.486-1.1h.663q.111.11.5.442a1.106,1.106,0,0,0,.608.331,2.7,2.7,0,0,0,1.436-.5,7.4,7.4,0,0,0,1.436-1.215,8.48,8.48,0,0,0,1.16-1.6,3.407,3.407,0,0,0,.5-1.657,4.33,4.33,0,0,0,1.215.608,13.818,13.818,0,0,0,1.436.5.75.75,0,0,0,.221.552l.221.221a.96.96,0,0,0,.552-.276,1.7,1.7,0,0,0,.442-.5v-.221l-.11-.11h-.552q0-2.873.773-3.812t3.646-1.6a4.612,4.612,0,0,1,1.713,1.215q.829.884,1.6,1.823t1.492,1.657a2.03,2.03,0,0,0,1.381.718,1.106,1.106,0,0,0,.608-.331q.387-.331.387-.442h.552q.663,0,1.1.884a11.456,11.456,0,0,1,.773,2.1,19.536,19.536,0,0,1,.5,2.376,13.542,13.542,0,0,1,.166,1.6,20.646,20.646,0,0,1-.829,5.746,20.644,20.644,0,0,0-.829,5.746q0,.442.773.773l.884.442a5.354,5.354,0,0,0-.608.829q-.387.608-.5.829l-.221.221q0,.221.11.221a.1.1,0,0,0,.111.11,3.731,3.731,0,0,0,.5.663q.387.442.608.442a1.788,1.788,0,0,1-.276.718,1.788,1.788,0,0,0-.276.718v5.193a12.95,12.95,0,0,0,.11,1.713q.111.829.331,1.768t.663,2.265a2.4,2.4,0,0,0,.552.939,3.394,3.394,0,0,1,.552.829,2.152,2.152,0,0,1-.276.773.885.885,0,0,1-.829.552q0,.221-.11,1.05a10.376,10.376,0,0,0-.11,1.271,3.817,3.817,0,0,0,.552,2.155,12.3,12.3,0,0,0,1.16,1.492q.608.663,1.16,1.215a1.943,1.943,0,0,1,.552,1.436h-.773a5.044,5.044,0,0,0-1.16-.663,3.89,3.89,0,0,0-1.271-.442,4.378,4.378,0,0,0-1.16.442,2.726,2.726,0,0,0-1.05.663h-.663q-1.989,0-3.425-2.431a26.145,26.145,0,0,1-2.486-6.133,74.881,74.881,0,0,1-1.768-7.956q-.718-4.254-1.326-7.956t-1.16-6.133q-.553-2.431-1.215-2.431h-.332a13.245,13.245,0,0,1-1.6,1.547q-1.271,1.1-1.823,1.657a7.54,7.54,0,0,0-1.16,1.16,10.708,10.708,0,0,0-1.05,1.271h-.552a1.5,1.5,0,0,1-1.05-.276,1.938,1.938,0,0,0-1.271-.276,10.793,10.793,0,0,0,.221,2.32,8.673,8.673,0,0,1,.221,1.878,5,5,0,0,1-.331,1.768,6.626,6.626,0,0,1-1.326,1.989h-.663a7.581,7.581,0,0,1-.331-.939q-.221-.718-.331-1.05v-.663q0-.552-.442-.552a1.677,1.677,0,0,0-.608.166q-.387.166-.387.387v2.873l.994.773a.735.735,0,0,1-.166.442.478.478,0,0,1-.387.221,1.47,1.47,0,0,1-.884-.331,2.456,2.456,0,0,1-.773-.331,2.329,2.329,0,0,0-1.271.5,1.351,1.351,0,0,0-.718,1.05.318.318,0,0,0,.111.221.1.1,0,0,0,.11.11q.332.11.773.221a2.528,2.528,0,0,1,.995.442l.221.221.221.221q0,2.32-1.492,2.707a17.29,17.29,0,0,1-3.26.5,4.571,4.571,0,0,0-.331-1.713,1.141,1.141,0,0,0-1.1-.829,2.058,2.058,0,0,0-1.878,1.381,5.562,5.562,0,0,0-.663,2.265,2.249,2.249,0,0,0,.884,1.823,2.612,2.612,0,0,1,.884,2.155q0,2.652-1.216,3.536A7.86,7.86,0,0,1,518.343-1.6a32.989,32.989,0,0,0-3.26.939,3.981,3.981,0,0,0-2.376,2.431h-.663l-.608-.608a3.578,3.578,0,0,0-.718-.608h-.331q0,.11-.387.331t-.387.442h-.552l-.331-.663-.221-.442a4.618,4.618,0,0,1,.221-.773,2.788,2.788,0,0,1,.331-.663.848.848,0,0,1,.11-.331.981.981,0,0,0,.111-.442q0-1.547-.055-3.7t-.276-4.365q-.221-2.21-.552-4.254a11.825,11.825,0,0,0-.994-3.37q-.552-1.1-.994-1.823a11.444,11.444,0,0,1-.773-1.492,10.935,10.935,0,0,1-.552-1.657,10.488,10.488,0,0,1-.221-2.431v-2.983a1.988,1.988,0,0,1,.332-.608,1.988,1.988,0,0,0,.331-.608,6,6,0,0,0-.442-1.878q-.442-1.215-.552-1.215h-1.657a1.769,1.769,0,0,0,.442-1.1v-2.431a4.981,4.981,0,0,0-.608.387,1.2,1.2,0,0,1-.608.276.619.619,0,0,1-.608-.5l-.387-1.16a13.02,13.02,0,0,0-.5-1.271,1.147,1.147,0,0,0-.829-.718q-.663-.221-1.657.773a13.21,13.21,0,0,0-1.878,2.431q-.884,1.436-1.713,2.818t-1.16,1.823a7.722,7.722,0,0,1-.884.994q-.663.663-.663.773a7.577,7.577,0,0,1-.939.331,2.454,2.454,0,0,0-.939.442v.442a4.978,4.978,0,0,1,.608.387,4.793,4.793,0,0,1,.5.387l-2.21,2.21a2.016,2.016,0,0,1,1.05.055.766.766,0,0,1,.5.829,1.211,1.211,0,0,1-.5,1.16,1.211,1.211,0,0,0-.5,1.16q0,.884.5.829t.5.608v.221a4.506,4.506,0,0,1-1.547,1.271,2.174,2.174,0,0,0-1.215,1.934,2.043,2.043,0,0,0,.331,1.16,2.043,2.043,0,0,1,.331,1.16q0,3.2-1.657,4.586a6.863,6.863,0,0,1-4.53,1.381q0,.331.055,1.271t.055,1.934q0,.994.055,1.878t.055,1.215a5.862,5.862,0,0,1-.055.663,6.169,6.169,0,0,1-.221.994,3.172,3.172,0,0,1-.442.939.846.846,0,0,1-.718.387h-.221a2.629,2.629,0,0,1-.718-.166,3.049,3.049,0,0,0-.608-.166h-.111a2.939,2.939,0,0,0-1.768.663,6.882,6.882,0,0,1-1.436.884h-.332A3.141,3.141,0,0,1,472.818.552a6.132,6.132,0,0,1-.773-3.315Zm2.1,1.878q-.221-.221-.221.552t.221.552a.693.693,0,0,0,.332-.608A.469.469,0,0,0,474.144-1.768Zm82.541,1.1v-.552h-.552Zm-81.326-4.2a3.561,3.561,0,0,0,.442,1.547,1.5,1.5,0,0,0,1.436.884q.552,0,.663-.994t.11-1.215q0-.11-.055-.718t-.055-.829a3.278,3.278,0,0,1-.994.387,5.128,5.128,0,0,0-.884.276.6.6,0,0,0-.442.276A.848.848,0,0,0,475.359-4.862Zm78.232-15.8a2.155,2.155,0,0,0,.276.608q.276.5.5.5v-2.32a4.914,4.914,0,0,0-.5.608A1.2,1.2,0,0,0,553.591-20.663Zm-70.055-1.215h.663v-.884h-.663Zm-10.387-15.8q0,2.431.055,4.53t.387,2.1q.331,0,.276-1.16t-.221-2.486q-.166-1.326-.331-2.32T473.149-37.68Zm43.425,13.812a.488.488,0,0,1,.552.552.488.488,0,0,1-.552.552q-.442,0-.442-.552T516.575-23.867Zm-3.646,3.2a5.521,5.521,0,0,1-.442.994,6.062,6.062,0,0,0-.331.773l.718.166q.718.166,1.492.331t1.492.331l.718.166-2.541-3.536a1.464,1.464,0,0,0-.718.221A.641.641,0,0,0,512.928-20.663Zm-.221-6.188q-.221-.11-.221.331t.221.442Q512.928-26.3,512.707-26.851Zm17.459.773q.111-.442-.387-.442t-.387.442a.445.445,0,0,0,.442.221Q530.166-25.856,530.166-26.077Zm-2.652-2.431q-.111-.221-.11.166t.11.276q.332-.11.332-.276T527.514-28.508Zm10.055-4.309q-.442,0-.442.552t.442.552q.442,0,.442-.552T537.569-32.818Zm5.193-.221a5.652,5.652,0,0,0-.829.11q-.608.11-1.1.221a8.544,8.544,0,0,0-.829.221q-.332.11-.11.11a4.325,4.325,0,0,0,.608-.11q.5-.11,1.05-.221t.939-.221Q542.873-33.039,542.762-33.039Zm9.613-1.215a4.176,4.176,0,0,0,2.044-.221q.718-.331.773-.829a1.05,1.05,0,0,0-.552-.939,4.879,4.879,0,0,0-2.044-.663q-.221,0-.166.442a7.586,7.586,0,0,1,.055.939v.884Q552.486-34.254,552.376-34.254Zm-67.4-3.536a9.9,9.9,0,0,0,.442,2.652,3.773,3.773,0,0,0,1.215,2.1q.111-.11,1.1-.884a4.329,4.329,0,0,0,.994-.884,1.818,1.818,0,0,0-.552-.111q-.552,0-.552-.11a2.729,2.729,0,0,0-.884-1.823A2.493,2.493,0,0,0,484.972-37.79ZM526.409-34.7q-.332,0-.332.608t.332.608q.552,0,.552-.608T526.409-34.7Zm2.541-2.541q-.221,0-.111.442a6.328,6.328,0,0,0,.387,1.05,4.253,4.253,0,0,0,.663,1.05q.387.442.608.442a1.694,1.694,0,0,0,.939-1.215,1.766,1.766,0,0,0-.276-1.16,1.849,1.849,0,0,0-.994-.718A1.4,1.4,0,0,0,528.95-37.238Zm-40.884-5.746a5.394,5.394,0,0,0,.111,1.16,2.254,2.254,0,0,0,.663,1.05q0-.11.276-.387t.276-.387V-42.1a7.1,7.1,0,0,0-.276-1.215,6.342,6.342,0,0,1-.276-1.326q-.663.221-.718.718A8.524,8.524,0,0,0,488.066-42.983Zm4.862-.11q-.332,0-.276.331a1.7,1.7,0,0,0,.276.663,7.765,7.765,0,0,0,.5.663.79.79,0,0,0,.608.331q.331,0-.221-.994T492.928-43.094Zm.442-.773h.663v-.773h-.663Z" transform="translate(-6.851 88.84)"/></svg>